<?xml version="1.0" encoding="UTF-8"?>
<svg version="1.1" xmlns="http://www.w3.org/2000/svg" width="300" height="300" viewBox="0 0 300 300">
<path d="M0 0 C0.98242676 0.5458374 1.96485352 1.0916748 2.97705078 1.65405273 C4.63337222 2.44603711 6.29141345 3.23442835 7.95053101 4.02053833 C9.94889096 5.01682857 11.94505183 6.01753718 13.93945312 7.02172852 C15.03272919 7.56822052 16.12600525 8.11471252 17.25241089 8.67776489 C20.23689531 10.17058279 23.21956451 11.66691933 26.20147276 13.16486979 C29.32303183 14.73191702 32.44686969 16.29440829 35.57046509 17.85739136 C41.47925962 20.81489188 47.38600363 23.7764637 53.29201567 26.73951614 C60.67869034 30.44514461 68.06809921 34.14530954 75.45751953 37.84545898 C88.63332482 44.4430903 101.80498201 51.04895296 114.97705078 57.65405273 C114.97705078 91.64405273 114.97705078 125.63405273 114.97705078 160.65405273 C119.43205078 158.67405273 119.43205078 158.67405273 123.97705078 156.65405273 C123.97705078 160.28405273 123.97705078 163.91405273 123.97705078 167.65405273 C120.01705078 169.63405273 120.01705078 169.63405273 115.97705078 171.65405273 C115.64705078 188.81405273 115.31705078 205.97405273 114.97705078 223.65405273 C99.96674273 231.27206361 84.94836663 238.87336111 69.91435814 246.44445992 C62.93411387 249.96036641 55.95779788 253.48367919 48.99023438 257.0246582 C42.91745508 260.11087592 36.83778059 263.18297716 30.74940455 266.23831832 C27.52567175 267.85670458 24.30583523 269.48195051 21.09415817 271.12414932 C17.50905652 272.95695757 13.9089179 274.75806898 10.30664062 276.55688477 C9.24352661 277.10641815 8.1804126 277.65595154 7.08508301 278.22213745 C-0.09204882 281.76058527 -0.09204882 281.76058527 -4.04589844 281.30810547 C-5.0283252 280.76226807 -6.01075195 280.21643066 -7.02294922 279.65405273 C-8.67927066 278.86206836 -10.33731189 278.07367712 -11.99642944 277.28756714 C-13.99478939 276.29127689 -15.99095027 275.29056828 -17.98535156 274.28637695 C-19.07862762 273.73988495 -20.17190369 273.19339294 -21.29830933 272.63034058 C-24.28279375 271.13752268 -27.26546294 269.64118614 -30.2473712 268.14323568 C-33.36893026 266.57618845 -36.49276812 265.01369718 -39.61636353 263.45071411 C-45.52515806 260.49321359 -51.43190207 257.53164177 -57.33791411 254.56858933 C-64.06427165 251.19421817 -70.7929119 247.82441097 -77.52174449 244.4549787 C-91.35802062 237.52639902 -105.19112384 230.59151446 -119.02294922 223.65405273 C-119.02294922 213.09405273 -119.02294922 202.53405273 -119.02294922 191.65405273 C-121.00294922 190.99405273 -122.98294922 190.33405273 -125.02294922 189.65405273 C-126.01294922 188.99405273 -127.00294922 188.33405273 -128.02294922 187.65405273 C-128.43689617 184.28728421 -128.15382489 181.05682019 -128.02294922 177.65405273 C-125.05294922 178.97405273 -122.08294922 180.29405273 -119.02294922 181.65405273 C-119.35294922 164.82405273 -119.68294922 147.99405273 -120.02294922 130.65405273 C-122.66294922 129.33405273 -125.30294922 128.01405273 -128.02294922 126.65405273 C-128.02294922 123.02405273 -128.02294922 119.39405273 -128.02294922 115.65405273 C-125.05294922 116.97405273 -122.08294922 118.29405273 -119.02294922 119.65405273 C-119.35294922 109.75405273 -119.68294922 99.85405273 -120.02294922 89.65405273 C-122.66294922 88.33405273 -125.30294922 87.01405273 -128.02294922 85.65405273 C-128.02294922 82.02405273 -128.02294922 78.39405273 -128.02294922 74.65405273 C-125.05294922 75.97405273 -122.08294922 77.29405273 -119.02294922 78.65405273 C-119.02294922 71.72405273 -119.02294922 64.79405273 -119.02294922 57.65405273 C-104.01383842 50.03376486 -88.99424184 42.43473267 -73.96025658 34.86364555 C-66.98001231 31.34773906 -60.00369632 27.82442627 -53.03613281 24.28344727 C-46.96335352 21.19722955 -40.88367903 18.12512831 -34.79530299 15.06978714 C-31.57157019 13.45140089 -28.35173367 11.82615496 -25.14005661 10.18395615 C-21.55495496 8.3511479 -17.95481634 6.55003649 -14.35253906 4.7512207 C-13.28942505 4.20168732 -12.22631104 3.65215393 -11.13098145 3.08596802 C-3.95384961 -0.4524798 -3.95384961 -0.4524798 0 0 Z " fill="#41631F" transform="translate(152.02294921875,9.345947265625)"/>
<path d="M0 0 C15.18 7.59 30.36 15.18 46 23 C46 56.99 46 90.98 46 126 C48.97 124.68 51.94 123.36 55 122 C55 125.63 55 129.26 55 133 C51.04 134.98 51.04 134.98 47 137 C46.67 154.16 46.34 171.32 46 189 C30.98969195 196.61801087 15.97131584 204.21930837 0.93730736 211.79040718 C-6.04293691 215.30631368 -13.0192529 218.82962646 -19.98681641 222.37060547 C-26.0595957 225.45682319 -32.13927019 228.52892443 -38.22764623 231.58426559 C-41.45137903 233.20265184 -44.67121555 234.82789778 -47.88289261 236.47009659 C-51.46799426 238.30290484 -55.06813288 240.10401624 -58.67041016 241.90283203 C-59.73352417 242.45236542 -60.79663818 243.0018988 -61.89196777 243.56808472 C-69.13145164 247.13727315 -69.13145164 247.13727315 -73.52059937 246.443573 C-75.3848499 245.35815675 -77.20509211 244.19660526 -79 243 C-79.34057617 240.66162109 -79.34057617 240.66162109 -79.29296875 237.7734375 C-79.28330078 236.7421875 -79.27363281 235.7109375 -79.26367188 234.6484375 C-79.23853516 233.56820312 -79.21339844 232.48796875 -79.1875 231.375 C-79.17396484 230.28703125 -79.16042969 229.1990625 -79.14648438 228.078125 C-79.11105124 225.38520709 -79.05724303 222.69254259 -79 220 C-74.05 217.36 -69.1 214.72 -64 212 C-64 209.03 -64 206.06 -64 203 C-68.95 205.31 -73.9 207.62 -79 210 C-79 204.06 -79 198.12 -79 192 C-74.85332129 193.38222624 -71.44059185 194.66564202 -67.625 196.625 C-66.31402344 197.29402344 -66.31402344 197.29402344 -64.9765625 197.9765625 C-63.99816406 198.48316406 -63.99816406 198.48316406 -63 199 C-62.3948918 195.26211642 -62.45781537 192.48968703 -64 189 C-68.39979791 185.35518026 -73.85156146 183.33626623 -79 181 C-79 173.41 -79 165.82 -79 158 C-73 155 -73 155 -71 155 C-70.96463304 151.58149186 -71.0065017 148.16813648 -71.0625 144.75 C-71.05154297 143.78191406 -71.04058594 142.81382812 -71.02929688 141.81640625 C-70.98214643 136.61616761 -70.98214643 136.61616761 -73.62060547 132.43554688 C-75.7453241 131.15704027 -75.7453241 131.15704027 -79 130 C-79 125.71 -79 121.42 -79 117 C-73.25 114 -73.25 114 -71 114 C-70.96463304 110.58149186 -71.0065017 107.16813648 -71.0625 103.75 C-71.05154297 102.78191406 -71.04058594 101.81382812 -71.02929688 100.81640625 C-70.98214643 95.61616761 -70.98214643 95.61616761 -73.62060547 91.43554688 C-75.7453241 90.15704027 -75.7453241 90.15704027 -79 89 C-79 85.37 -79 81.74 -79 78 C-79.94875 77.71125 -80.8975 77.4225 -81.875 77.125 C-85 76 -85 76 -87 74 C-84.62832181 72.38725883 -82.64201351 71.0366049 -80 70 C-76.8125 70.6875 -76.8125 70.6875 -74 72 C-71.60311839 72.8654227 -70.43143463 73.13698009 -67.97730637 72.35779667 C-67.25830784 71.99553203 -66.53930931 71.63326738 -65.79852295 71.26002502 C-64.96843719 70.84910614 -64.13835144 70.43818726 -63.28311157 70.01481628 C-62.3811203 69.55303482 -61.47912903 69.09125336 -60.54980469 68.61547852 C-59.59337067 68.13769958 -58.63693665 67.65992065 -57.65151978 67.16766357 C-54.48581867 65.58271995 -51.32896005 63.98093433 -48.171875 62.37890625 C-45.98093215 61.27784073 -43.78945765 60.17783251 -41.59747314 59.07884216 C-35.82504022 56.1811623 -30.05995852 53.2691411 -24.29626465 50.35412598 C-18.41540414 47.38302723 -12.52774014 44.4254772 -6.640625 41.46679688 C4.91296671 35.65781047 16.45907873 29.83411517 28 24 C24.96298407 22.39668203 21.92516566 20.7948903 18.88720703 19.19335938 C18.03290604 18.74232849 17.17860504 18.29129761 16.29841614 17.82659912 C9.35161055 14.16592189 2.34082359 10.65591484 -4.73046875 7.2421875 C-5.95056641 6.64277344 -5.95056641 6.64277344 -7.1953125 6.03125 C-7.90703613 5.68642578 -8.61875977 5.34160156 -9.35205078 4.98632812 C-11 4 -11 4 -12 2 C-7.04132359 -0.9515931 -6.12420775 -1.02070129 0 0 Z " fill="#3A581C" transform="translate(221,44)"/>
<path d="M0 0 C1.20970459 0.62056274 1.20970459 0.62056274 2.44384766 1.25366211 C3.76835937 1.92558594 3.76835937 1.92558594 5.11962891 2.61108398 C6.02326172 3.0796582 6.92689453 3.54823242 7.85791016 4.03100586 C8.78474609 4.50344727 9.71158203 4.97588867 10.66650391 5.46264648 C12.94244606 6.62408088 15.21429789 7.79283653 17.48291016 8.96850586 C17.48291016 9.62850586 17.48291016 10.28850586 17.48291016 10.96850586 C12.86291016 13.27850586 8.24291016 15.58850586 3.48291016 17.96850586 C7.11397776 21.02121049 7.11397776 21.02121049 10.48291016 21.96850586 C12.30964473 20.93391363 14.1328889 19.89213786 15.92895508 18.80517578 C25.00664953 13.49688588 25.00664953 13.49688588 29.84667969 14.41870117 C33.03043 15.65159462 35.8858695 17.16168146 38.77246094 18.98046875 C41.52014709 20.69683309 41.52014709 20.69683309 44.48291016 21.96850586 C47.78829204 20.86058335 47.78829204 20.86058335 50.48291016 18.96850586 C54.77494913 19.14018742 57.27548894 20.13117171 60.48291016 22.96850586 C58.17291016 24.28850586 55.86291016 25.60850586 53.48291016 26.96850586 C66.68291016 33.56850586 79.88291016 40.16850586 93.48291016 46.96850586 C90.96812929 49.48328673 89.55048314 50.62652026 86.51799011 52.16499329 C85.71477829 52.57588699 84.91156647 52.9867807 84.08401489 53.41012573 C83.20655609 53.85131744 82.32909729 54.29250916 81.42504883 54.74707031 C80.49790573 55.21889236 79.57076263 55.69071442 78.61552429 56.17683411 C75.54740094 57.73535459 72.47462867 59.28439535 69.40087891 60.83178711 C68.35199305 61.36109518 67.30310719 61.89040325 66.2224369 62.43575096 C60.67519687 65.23477818 55.12438687 68.02657334 49.57055664 70.8125 C43.82813097 73.69474872 38.09820104 76.60097517 32.37079906 79.51293659 C27.96887156 81.74555454 23.55815392 83.9603469 19.1448307 86.17033958 C17.02795788 87.2342465 14.91444742 88.30487067 12.80440331 89.38225746 C9.85500041 90.88610837 6.89406945 92.36434099 3.92895508 93.83691406 C3.05756897 94.28822693 2.18618286 94.73953979 1.28839111 95.20452881 C-4.69415239 98.12916208 -4.69415239 98.12916208 -8.95014954 97.29829407 C-9.79723984 96.85946396 -10.64433014 96.42063385 -11.51708984 95.96850586 C-12.76304932 95.40172119 -12.76304932 95.40172119 -14.03417969 94.82348633 C-14.84064941 94.41501465 -15.64711914 94.00654297 -16.47802734 93.58569336 C-17.36103516 93.1409668 -18.24404297 92.69624023 -19.15380859 92.23803711 C-20.05744141 91.7778418 -20.96107422 91.31764648 -21.89208984 90.84350586 C-23.28234375 90.14161133 -23.28234375 90.14161133 -24.70068359 89.42553711 C-26.97468391 88.2768153 -29.24672266 87.12438705 -31.51708984 85.96850586 C-28.39308805 83.5728528 -25.24105953 81.64206105 -21.76708984 79.78100586 C-20.78224609 79.25120117 -19.79740234 78.72139648 -18.78271484 78.17553711 C-18.03505859 77.7772168 -17.28740234 77.37889648 -16.51708984 76.96850586 C-19.18201655 75.21793927 -19.18201655 75.21793927 -22.51708984 73.96850586 C-25.61284328 74.6393056 -25.61284328 74.6393056 -28.51708984 75.96850586 C-31.11828332 77.01317389 -32.80423413 77.23028472 -35.45721436 76.25604248 C-37.84914944 75.10007062 -40.17805298 73.85968277 -42.50927734 72.58569336 C-44.2836823 71.65666853 -46.05843272 70.7283033 -47.83349609 69.80053711 C-50.61893563 68.32398372 -53.39955538 66.83947628 -56.17382812 65.34204102 C-58.85760831 63.90044318 -61.55667143 62.49159902 -64.25927734 61.08569336 C-65.08241425 60.62959686 -65.90555115 60.17350037 -66.75363159 59.70358276 C-69.02347985 58.53453731 -71.03386946 57.56596545 -73.51708984 56.96850586 C-77.26976848 58.1645699 -77.26976848 58.1645699 -80.51708984 59.96850586 C-84.19382519 59.7256833 -87.06884776 58.38496253 -90.34521484 56.75366211 C-91.66779297 56.09527344 -91.66779297 56.09527344 -93.01708984 55.42358398 C-94.37833984 54.73425781 -94.37833984 54.73425781 -95.76708984 54.03100586 C-96.69005859 53.57532227 -97.61302734 53.11963867 -98.56396484 52.65014648 C-99.44052734 52.20993164 -100.31708984 51.7697168 -101.22021484 51.31616211 C-102.02104492 50.91405518 -102.821875 50.51194824 -103.64697266 50.09765625 C-105.51708984 48.96850586 -105.51708984 48.96850586 -106.51708984 46.96850586 C-98.04814215 42.58336116 -89.56540454 38.22653027 -81.06378078 33.90507221 C-77.11643686 31.89749155 -73.17450672 29.88054106 -69.2434082 27.84130859 C-65.44871972 25.87328721 -61.6418509 23.9310276 -57.825243 22.00588036 C-56.37217737 21.26734626 -54.92371628 20.51967896 -53.48013115 19.76278114 C-51.45501991 18.70296001 -49.41587732 17.67697327 -47.37036133 16.65722656 C-46.2134227 16.06432327 -45.05648407 15.47141998 -43.86448669 14.86054993 C-39.44907892 13.68389281 -37.50713624 14.95041994 -33.51708984 16.96850586 C-29.55432812 16.73988499 -27.84209298 16.18517461 -24.51708984 13.96850586 C-26.49708984 12.97850586 -28.47708984 11.98850586 -30.51708984 10.96850586 C-30.51708984 10.30850586 -30.51708984 9.64850586 -30.51708984 8.96850586 C-26.98881986 7.08798541 -23.4426809 5.24398521 -19.89208984 3.40600586 C-18.89306641 2.87297852 -17.89404297 2.33995117 -16.86474609 1.79077148 C-15.89150391 1.29125977 -14.91826172 0.79174805 -13.91552734 0.27709961 C-13.02526855 -0.18897705 -12.13500977 -0.65505371 -11.21777344 -1.13525391 C-7.04518458 -2.51995592 -3.9876367 -1.63411882 0 0 Z " fill="#619430" transform="translate(156.51708984375,20.031494140625)"/>
<path d="M0 0 C15.18 7.59 30.36 15.18 46 23 C46 56.99 46 90.98 46 126 C48.97 124.68 51.94 123.36 55 122 C55 125.63 55 129.26 55 133 C51.04 134.98 51.04 134.98 47 137 C46.67 154.16 46.34 171.32 46 189 C38.74115886 192.65037297 31.48202148 196.2999791 24.21910095 199.94219971 C20.83723522 201.63841963 17.45609808 203.33605687 14.07666016 205.03710938 C10.82349923 206.67453189 7.56841623 208.30807153 4.31194687 209.93890381 C3.0680664 210.56269591 1.82489248 211.18789894 0.58243179 211.81451416 C-1.15396011 212.68993789 -2.89307847 213.55994744 -4.63232422 214.4296875 C-5.62271698 214.92710449 -6.61310974 215.42452148 -7.6335144 215.93701172 C-10 217 -10 217 -12 217 C-12.495 207.595 -12.495 207.595 -13 198 C-14.98 198.99 -16.96 199.98 -19 201 C-19.66 201 -20.32 201 -21 201 C-21 184.17 -21 167.34 -21 150 C-14 146 -14 146 -12 146 C-12 155.9 -12 165.8 -12 176 C-10.02 175.01 -8.04 174.02 -6 173 C-5.34 173 -4.68 173 -4 173 C-3.505 182.405 -3.505 182.405 -3 192 C1.51958019 189.70068536 1.51958019 189.70068536 6.03466797 187.39257812 C10.77777778 185 10.77777778 185 13 185 C13 151.01 13 117.02 13 82 C10.03 83.32 7.06 84.64 4 86 C4 82.7 4 79.4 4 76 C10.75 72 10.75 72 13 72 C13 61.77 13 51.54 13 41 C5.08 44.96 5.08 44.96 -3 49 C-3.33 76.06 -3.66 103.12 -4 131 C-19 139 -19 139 -21 139 C-21 125.47 -21 111.94 -21 98 C-18.36 96.68 -15.72 95.36 -13 94 C-12.67 84.1 -12.34 74.2 -12 64 C-14.97 65.32 -17.94 66.64 -21 68 C-21 64.7 -21 61.4 -21 58 C-21.86625 58.515625 -22.7325 59.03125 -23.625 59.5625 C-27.47272931 61.20134767 -29.04864515 61.20258626 -33 60 C-34.35687935 59.03219 -35.69473502 58.03636919 -37 57 C-22.7184155 49.39145184 -8.29760262 42.08732887 6.1875 34.875 C8.31715213 33.8126901 10.44670994 32.7501911 12.57617188 31.6875 C17.7163672 29.12282807 22.85770435 26.56045784 28 24 C17.16311886 18.25740447 6.31557306 12.57475941 -4.73046875 7.2421875 C-5.54386719 6.84257813 -6.35726562 6.44296875 -7.1953125 6.03125 C-7.90703613 5.68642578 -8.61875977 5.34160156 -9.35205078 4.98632812 C-11 4 -11 4 -12 2 C-7.04132359 -0.9515931 -6.12420775 -1.02070129 0 0 Z " fill="#3C5C1E" transform="translate(221,44)"/>
<path d="M0 0 C3.04205093 1.43669138 6.08365047 2.87432518 9.125 4.3125 C10.40890625 4.91868164 10.40890625 4.91868164 11.71875 5.53710938 C13.39069432 6.32806765 15.05958379 7.12552107 16.72509766 7.92993164 C18.65193748 8.83627838 20.61966191 9.65490677 22.59375 10.453125 C23.3878125 10.96359375 24.181875 11.4740625 25 12 C25.5234375 14.55859375 25.5234375 14.55859375 25.375 17.4375 C25.36905851 20.35261325 25.36905851 20.35261325 26 23 C28.57176779 25.26888293 30.67917311 25.8930577 34 27 C34 30.3 34 33.6 34 37 C28.25 35.125 28.25 35.125 26 34 C26 60.73 26 87.46 26 115 C31.28 117.64 36.56 120.28 42 123 C42 99.57 42 76.14 42 52 C44.31 52.99 46.62 53.98 49 55 C49.495 50.05 49.495 50.05 50 45 C49.05125 44.690625 48.1025 44.38125 47.125 44.0625 C44 43 44 43 42 42 C42 35.07 42 28.14 42 21 C50.415 24.96 50.415 24.96 59 29 C59 56.06 59 83.12 59 111 C53 109 53 109 51 108 C50.67 121.53 50.34 135.06 50 149 C51.98 149.66 53.96 150.32 56 151 C57.485 151.99 57.485 151.99 59 153 C59.34057617 155.98095703 59.34057617 155.98095703 59.29296875 159.7578125 C59.28872391 160.42086395 59.28447906 161.08391541 59.28010559 161.76705933 C59.26329971 163.88678441 59.22564701 166.00556188 59.1875 168.125 C59.17245549 169.56118419 59.15876668 170.99738328 59.14648438 172.43359375 C59.1133909 175.95603764 59.0615968 179.47792636 59 183 C55.59687262 181.94124926 52.98646769 180.99097846 50 179 C50.015625 176.8984375 50.015625 176.8984375 50.25 174.375 C50.26029173 171.61765107 50.26029173 171.61765107 49 169 C44.60633924 165.35404488 39.1421797 163.33342608 34 161 C33.67 150.77 33.34 140.54 33 130 C30.36 128.68 27.72 127.36 25 126 C25 142.83 25 159.66 25 177 C13.95203337 171.76675265 2.93414631 166.46707316 -8 161 C-8 150.44 -8 139.88 -8 129 C-9.98 128.34 -11.96 127.68 -14 127 C-14.99 126.34 -15.98 125.68 -17 125 C-17.41394695 121.63323148 -17.13087567 118.40276745 -17 115 C-14.03 116.32 -11.06 117.64 -8 119 C-8.33 102.17 -8.66 85.34 -9 68 C-11.64 66.68 -14.28 65.36 -17 64 C-17 60.37 -17 56.74 -17 53 C-12.545 54.98 -12.545 54.98 -8 57 C-8.33 47.1 -8.66 37.2 -9 27 C-11.64 25.68 -14.28 24.36 -17 23 C-17 19.37 -17 15.74 -17 12 C-8.585 15.96 -8.585 15.96 0 20 C0 13.4 0 6.8 0 0 Z " fill="#4E7726" transform="translate(41,72)"/>
<path d="M0 0 C0 10.23 0 20.46 0 31 C-3.96 32.98 -3.96 32.98 -8 35 C-8 37.97 -8 40.94 -8 44 C-6.576875 43.2575 -6.576875 43.2575 -5.125 42.5 C-2 41 -2 41 0 41 C0 74.99 0 108.98 0 144 C-5.61 146.64 -11.22 149.28 -17 152 C-17 145.4 -17 138.8 -17 132 C-18.98 132.99 -20.96 133.98 -23 135 C-23.66 135 -24.32 135 -25 135 C-25 125.1 -25 115.2 -25 105 C-27.64 106.32 -30.28 107.64 -33 109 C-33.33 125.83 -33.66 142.66 -34 160 C-29.545 158.02 -29.545 158.02 -25 156 C-25 162.93 -25 169.86 -25 177 C-28.97797684 179.00239733 -32.95730227 181.00202624 -36.9375 183 C-38.07380859 183.57234375 -39.21011719 184.1446875 -40.38085938 184.734375 C-42.00024414 185.54648437 -42.00024414 185.54648437 -43.65234375 186.375 C-44.65257568 186.87773437 -45.65280762 187.38046875 -46.68334961 187.8984375 C-49 189 -49 189 -50 189 C-50 171.84 -50 154.68 -50 137 C-44 134 -44 134 -42 134 C-42.33 130.7 -42.66 127.4 -43 124 C-45.31 124.99 -47.62 125.98 -50 127 C-50.33 124.03 -50.66 121.06 -51 118 C-51.94875 118.495 -52.8975 118.99 -53.875 119.5 C-57 121 -57 121 -59 121 C-59 117.7 -59 114.4 -59 111 C-52.25 107 -52.25 107 -50 107 C-50 90.17 -50 73.34 -50 56 C-52.97 57.32 -55.94 58.64 -59 60 C-59 49.77 -59 39.54 -59 29 C-56.69 27.68 -54.38 26.36 -52 25 C-55.465 23.02 -55.465 23.02 -59 21 C-56.14579174 18.67434882 -53.60942216 16.85938623 -50 16 C-47.99152635 16.98287008 -45.99180409 17.98377342 -44 19 C-40.88695186 18.84239972 -40.88695186 18.84239972 -38 18 C-36.68 17.67 -35.36 17.34 -34 17 C-33.67 19.97 -33.34 22.94 -33 26 C-32.05125 25.505 -31.1025 25.01 -30.125 24.5 C-27 23 -27 23 -25 23 C-25 32.9 -25 42.8 -25 53 C-32 57 -32 57 -34 57 C-34 70.53 -34 84.06 -34 98 C-28.72 95.36 -23.44 92.72 -18 90 C-17.67 62.94 -17.34 35.88 -17 8 C-2 0 -2 0 0 0 Z " fill="#344F18" transform="translate(234,85)"/>
<path d="M0 0 C2.64 1.32 5.28 2.64 8 4 C8 7.63 8 11.26 8 15 C8.763125 15.20625 9.52625 15.4125 10.3125 15.625 C15.52238746 17.5676699 20.15099789 20.27982809 25 23 C25 29.93 25 36.86 25 44 C19 47 19 47 17 47 C16.97892584 49.08333091 17.00974262 51.16723058 17.0625 53.25 C17.07410156 54.41015625 17.08570313 55.5703125 17.09765625 56.765625 C17.87517617 61.01662128 17.87517617 61.01662128 25 64 C25 70.93 25 77.86 25 85 C19 88 19 88 17 88 C15.48284693 101.07753683 15.48284693 101.07753683 19.51953125 112.87451172 C23.58369145 115.96365212 28.13459778 117.58897481 33 119 C33 122.3 33 125.6 33 129 C27.29292318 127.34795145 22.2674848 124.70492463 17 122 C17.495 130.415 17.495 130.415 18 139 C22.95 136.69 27.9 134.38 33 132 C33 135.3 33 138.6 33 142 C31.39318359 142.46599609 31.39318359 142.46599609 29.75390625 142.94140625 C25.24056821 144.57141793 21.08651003 146.19244473 18 150 C15.7479964 157.3421301 16.44179699 165.42558592 17 173 C4.24644055 168.2799658 4.24644055 168.2799658 0 165 C-0.88723491 161.96495385 -0.59142978 159.82410392 -0.3125 156.69921875 C-1.14208839 153.44214161 -1.76549309 153.1946246 -4.5625 151.51953125 C-8.60549839 149.42399518 -12.76441141 147.66653937 -17 146 C-17 142.7 -17 139.4 -17 136 C-11.25 137.875 -11.25 137.875 -9 139 C-9 105.01 -9 71.02 -9 36 C-10.98 35.34 -12.96 34.68 -15 34 C-15.66 33.67 -16.32 33.34 -17 33 C-17 29.7 -17 26.4 -17 23 C-11.25 24.875 -11.25 24.875 -9 26 C-9 19.4 -9 12.8 -9 6 C-4.545 7.98 -4.545 7.98 0 10 C0 6.7 0 3.4 0 0 Z " fill="#456A20" transform="translate(125,114)"/>
<path d="M0 0 C0.80646973 0.4137085 1.61293945 0.82741699 2.44384766 1.25366211 C3.32685547 1.70161133 4.20986328 2.14956055 5.11962891 2.61108398 C6.47507812 3.31394531 6.47507812 3.31394531 7.85791016 4.03100586 C8.78474609 4.50344727 9.71158203 4.97588867 10.66650391 5.46264648 C12.94244606 6.62408088 15.21429789 7.79283653 17.48291016 8.96850586 C17.48291016 9.62850586 17.48291016 10.28850586 17.48291016 10.96850586 C12.86291016 13.27850586 8.24291016 15.58850586 3.48291016 17.96850586 C7.11397776 21.02121049 7.11397776 21.02121049 10.48291016 21.96850586 C12.30964473 20.93391363 14.1328889 19.89213786 15.92895508 18.80517578 C25.00664953 13.49688588 25.00664953 13.49688588 29.84667969 14.41870117 C33.03043 15.65159462 35.8858695 17.16168146 38.77246094 18.98046875 C41.52014709 20.69683309 41.52014709 20.69683309 44.48291016 21.96850586 C47.78829204 20.86058335 47.78829204 20.86058335 50.48291016 18.96850586 C54.77494913 19.14018742 57.27548894 20.13117171 60.48291016 22.96850586 C58.17291016 24.28850586 55.86291016 25.60850586 53.48291016 26.96850586 C66.68291016 33.56850586 79.88291016 40.16850586 93.48291016 46.96850586 C90.96812929 49.48328673 89.55048314 50.62652026 86.51799011 52.16499329 C85.71477829 52.57588699 84.91156647 52.9867807 84.08401489 53.41012573 C83.20655609 53.85131744 82.32909729 54.29250916 81.42504883 54.74707031 C80.49790573 55.21889236 79.57076263 55.69071442 78.61552429 56.17683411 C75.54740094 57.73535459 72.47462867 59.28439535 69.40087891 60.83178711 C68.35199305 61.36109518 67.30310719 61.89040325 66.2224369 62.43575096 C60.67519687 65.23477818 55.12438687 68.02657334 49.57055664 70.8125 C43.82813097 73.69474872 38.09820104 76.60097517 32.37079906 79.51293659 C27.96887156 81.74555454 23.55815392 83.9603469 19.1448307 86.17033958 C17.02795788 87.2342465 14.91444742 88.30487067 12.80440331 89.38225746 C9.85500041 90.88610837 6.89406945 92.36434099 3.92895508 93.83691406 C2.62187592 94.51388336 2.62187592 94.51388336 1.28839111 95.20452881 C-4.69415239 98.12916208 -4.69415239 98.12916208 -8.95014954 97.29829407 C-10.22078499 96.6400489 -10.22078499 96.6400489 -11.51708984 95.96850586 C-12.76304932 95.40172119 -12.76304932 95.40172119 -14.03417969 94.82348633 C-14.84064941 94.41501465 -15.64711914 94.00654297 -16.47802734 93.58569336 C-17.36103516 93.1409668 -18.24404297 92.69624023 -19.15380859 92.23803711 C-20.05744141 91.7778418 -20.96107422 91.31764648 -21.89208984 90.84350586 C-23.28234375 90.14161133 -23.28234375 90.14161133 -24.70068359 89.42553711 C-26.97468391 88.2768153 -29.24672266 87.12438705 -31.51708984 85.96850586 C-28.11597104 83.27792593 -25.94875642 82.09341803 -21.51708984 81.96850586 C-18.40486066 83.33010613 -15.62796058 84.86278558 -12.72802734 86.60717773 C-9.59100888 88.35879487 -7.99222831 89.06365323 -4.41552734 88.34741211 C-3.45904297 87.89237305 -2.50255859 87.43733398 -1.51708984 86.96850586 C-0.60185547 86.54311523 0.31337891 86.11772461 1.25634766 85.67944336 C2.54412109 85.0181543 2.54412109 85.0181543 3.85791016 84.34350586 C4.73189453 83.89749023 5.60587891 83.45147461 6.50634766 82.99194336 C7.48474609 82.4853418 7.48474609 82.4853418 8.48291016 81.96850586 C5.55387958 79.63486234 2.59722813 77.9188975 -0.76708984 76.28100586 C-1.65912109 75.84401367 -2.55115234 75.40702148 -3.47021484 74.95678711 C-4.14568359 74.6306543 -4.82115234 74.30452148 -5.51708984 73.96850586 C-5.51708984 73.30850586 -5.51708984 72.64850586 -5.51708984 71.96850586 C-3.31796489 70.76049338 -1.11047165 69.57768639 1.10791016 68.40600586 C1.72537109 68.06375977 2.34283203 67.72151367 2.97900391 67.36889648 C7.23948311 65.14896258 9.86779335 64.57323799 14.48291016 65.96850586 C16.85791016 67.53100586 16.85791016 67.53100586 18.48291016 68.96850586 C13.73291016 71.96850586 13.73291016 71.96850586 11.48291016 71.96850586 C11.48291016 72.62850586 11.48291016 73.28850586 11.48291016 73.96850586 C17.0932744 75.58927775 20.94536093 76.52429781 26.48291016 73.96850586 C26.48291016 73.30850586 26.48291016 72.64850586 26.48291016 71.96850586 C25.51353516 71.67975586 24.54416016 71.39100586 23.54541016 71.09350586 C20.48291016 69.96850586 20.48291016 69.96850586 19.48291016 67.96850586 C24.7388889 64.91270427 24.7388889 64.91270427 27.98291016 65.15600586 C30.48291016 65.96850586 30.48291016 65.96850586 33.17822266 67.23022461 C37.58927843 68.21567324 40.10971271 66.72191861 43.85791016 64.59350586 C44.49857422 64.25061523 45.13923828 63.90772461 45.79931641 63.55444336 C47.37025922 62.71035468 48.92801502 61.84180313 50.48291016 60.96850586 C47.55387958 58.63486234 44.59722813 56.9188975 41.23291016 55.28100586 C40.34087891 54.84401367 39.44884766 54.40702148 38.52978516 53.95678711 C37.85431641 53.6306543 37.17884766 53.30452148 36.48291016 52.96850586 C36.48291016 52.30850586 36.48291016 51.64850586 36.48291016 50.96850586 C38.46291016 49.97850586 40.44291016 48.98850586 42.48291016 47.96850586 C40.17291016 46.64850586 37.86291016 45.32850586 35.48291016 43.96850586 C38.56560155 41.52437197 41.76762126 39.63741062 45.23291016 37.78100586 C46.71017578 36.98629883 46.71017578 36.98629883 48.21728516 36.17553711 C48.96494141 35.7772168 49.71259766 35.37889648 50.48291016 34.96850586 C48.28578887 33.73450623 46.07927115 32.53240329 43.85791016 31.34350586 C42.93171875 30.81756836 42.93171875 30.81756836 41.98681641 30.28100586 C38.6259211 28.51211359 36.93600301 27.86728299 33.17822266 28.70678711 C31.84404297 29.33133789 31.84404297 29.33133789 30.48291016 29.96850586 C27.98291016 30.78100586 27.98291016 30.78100586 25.48291016 30.96850586 C24.55478516 30.45288086 23.62666016 29.93725586 22.67041016 29.40600586 C18.19511731 27.38773653 16.06546921 28.46732272 11.48291016 29.96850586 C11.48291016 30.62850586 11.48291016 31.28850586 11.48291016 31.96850586 C12.45228516 32.25725586 13.42166016 32.54600586 14.42041016 32.84350586 C17.48291016 33.96850586 17.48291016 33.96850586 18.48291016 35.96850586 C15.23115636 37.9040736 13.18553387 38.99661081 9.35791016 38.84350586 C6.46794645 37.96395169 4.73003725 36.95634905 2.48291016 34.96850586 C7.23291016 31.96850586 7.23291016 31.96850586 9.48291016 31.96850586 C9.48291016 31.30850586 9.48291016 30.64850586 9.48291016 29.96850586 C8.65791016 29.72100586 7.83291016 29.47350586 6.98291016 29.21850586 C4.21486646 28.22991883 2.02040437 27.19126707 -0.51708984 25.78100586 C-3.42002212 24.28791068 -4.43990466 23.96559321 -7.82958984 24.09350586 C-10.69654758 24.89324733 -10.69654758 24.89324733 -13.51708984 26.96850586 C-8.56708984 29.60850586 -3.61708984 32.24850586 1.48291016 34.96850586 C-2.90795336 38.2616535 -7.37495809 40.82666407 -12.20458984 43.40600586 C-13.06503906 43.90293945 -13.92548828 44.39987305 -14.81201172 44.91186523 C-21.19243841 48.27276822 -21.19243841 48.27276822 -25.16796875 47.35961914 C-27.40916894 46.36562689 -29.45814619 45.2957562 -31.51708984 43.96850586 C-30.58896484 43.28788086 -30.58896484 43.28788086 -29.64208984 42.59350586 C-27.45789151 40.99741667 -27.45789151 40.99741667 -25.51708984 38.96850586 C-27.49708984 37.97850586 -29.47708984 36.98850586 -31.51708984 35.96850586 C-28.91822434 32.93193669 -25.89637257 31.50686847 -22.32958984 29.78100586 C-21.24291016 29.25120117 -20.15623047 28.72139648 -19.03662109 28.17553711 C-18.20517578 27.7772168 -17.37373047 27.37889648 -16.51708984 26.96850586 C-19.95124466 24.56746195 -19.95124466 24.56746195 -23.95458984 24.15600586 C-26.61161745 24.94164234 -26.61161745 24.94164234 -29.39208984 26.28100586 C-32.90367769 27.05355519 -33.41924092 26.80169526 -36.39208984 25.09350586 C-37.42333984 24.39225586 -38.45458984 23.69100586 -39.51708984 22.96850586 C-36.43439845 20.52437197 -33.23237874 18.63741062 -29.76708984 16.78100586 C-28.78224609 16.25120117 -27.79740234 15.72139648 -26.78271484 15.17553711 C-26.03505859 14.7772168 -25.28740234 14.37889648 -24.51708984 13.96850586 C-26.49708984 12.97850586 -28.47708984 11.98850586 -30.51708984 10.96850586 C-30.51708984 10.30850586 -30.51708984 9.64850586 -30.51708984 8.96850586 C-26.98881986 7.08798541 -23.4426809 5.24398521 -19.89208984 3.40600586 C-18.89306641 2.87297852 -17.89404297 2.33995117 -16.86474609 1.79077148 C-15.89150391 1.29125977 -14.91826172 0.79174805 -13.91552734 0.27709961 C-13.02526855 -0.18897705 -12.13500977 -0.65505371 -11.21777344 -1.13525391 C-7.04518458 -2.51995592 -3.9876367 -1.63411882 0 0 Z " fill="#527E27" transform="translate(156.51708984375,20.031494140625)"/>
<path d="M0 0 C0 13.2 0 26.4 0 40 C2.97 38.68 5.94 37.36 9 36 C9 39.63 9 43.26 9 47 C5.04 48.98 5.04 48.98 1 51 C0.67 68.16 0.34 85.32 0 103 C-7.25884114 106.65037297 -14.51797852 110.2999791 -21.78089905 113.94219971 C-25.16276478 115.63841963 -28.54390192 117.33605687 -31.92333984 119.03710938 C-35.17650077 120.67453189 -38.43158377 122.30807153 -41.68805313 123.93890381 C-42.9319336 124.56269591 -44.17510752 125.18789894 -45.41756821 125.81451416 C-47.15396011 126.68993789 -48.89307847 127.55994744 -50.63232422 128.4296875 C-51.62271698 128.92710449 -52.61310974 129.42452148 -53.6335144 129.93701172 C-56 131 -56 131 -58 131 C-58.33 124.73 -58.66 118.46 -59 112 C-60.98 112.99 -62.96 113.98 -65 115 C-65.66 115 -66.32 115 -67 115 C-67 98.17 -67 81.34 -67 64 C-60 60 -60 60 -58 60 C-58 69.9 -58 79.8 -58 90 C-56.02 89.01 -54.04 88.02 -52 87 C-51.34 87 -50.68 87 -50 87 C-49.505 96.405 -49.505 96.405 -49 106 C-47.43507812 105.2059375 -45.87015625 104.411875 -44.2578125 103.59375 C-42.21364735 102.56229052 -40.16937075 101.53105191 -38.125 100.5 C-37.09246094 99.97535156 -36.05992187 99.45070313 -34.99609375 98.91015625 C-34.00996094 98.41386719 -33.02382812 97.91757813 -32.0078125 97.40625 C-31.09660645 96.94541016 -30.18540039 96.48457031 -29.24658203 96.00976562 C-27 95 -27 95 -25 95 C-25 84.44 -25 73.88 -25 63 C-22.36 61.68 -19.72 60.36 -17 59 C-17.00636475 58.08186523 -17.01272949 57.16373047 -17.01928711 56.21777344 C-17.02641878 52.80234943 -17.00235889 49.39007781 -16.95727539 45.97509766 C-16.94415596 44.49891883 -16.94338322 43.02257556 -16.95532227 41.54638672 C-16.98772554 36.96363757 -16.94183753 32.50566808 -16 28 C-14.41235352 26.50097656 -14.41235352 26.50097656 -12.5 25.6875 C-11.345 25.130625 -10.19 24.57375 -9 24 C-7.9381424 20.44209761 -8.02072668 16.94079582 -8.0625 13.25 C-8.04638672 12.26644531 -8.03027344 11.28289062 -8.01367188 10.26953125 C-7.9783623 7.84494071 -7.97491579 5.42459487 -8 3 C-2.25 0 -2.25 0 0 0 Z " fill="#334E18" transform="translate(267,130)"/>
<path d="M0 0 C0.33 19.8 0.66 39.6 1 60 C2.98 59.01 4.96 58.02 7 57 C7.66 57 8.32 57 9 57 C9 77.13 9 97.26 9 118 C2 122 2 122 0 122 C0 125.63 0 129.26 0 133 C-2.37230651 134.61316843 -4.35868125 135.96044483 -7 137 C-10.72800985 136.28307503 -12.84266549 135.10488967 -16 133 C-16.34057617 130.66162109 -16.34057617 130.66162109 -16.29296875 127.7734375 C-16.28330078 126.7421875 -16.27363281 125.7109375 -16.26367188 124.6484375 C-16.23853516 123.56820312 -16.21339844 122.48796875 -16.1875 121.375 C-16.17396484 120.28703125 -16.16042969 119.1990625 -16.14648438 118.078125 C-16.11105124 115.38520709 -16.05724303 112.69254259 -16 110 C-11.05 107.36 -6.1 104.72 -1 102 C-1 99.03 -1 96.06 -1 93 C-5.95 95.31 -10.9 97.62 -16 100 C-16 94.06 -16 88.12 -16 82 C-11.85332129 83.38222624 -8.44059185 84.66564202 -4.625 86.625 C-3.75101563 87.07101563 -2.87703125 87.51703125 -1.9765625 87.9765625 C-1.32429687 88.31429687 -0.67203125 88.65203125 0 89 C0.6051082 85.26211642 0.54218463 82.48968703 -1 79 C-5.39979791 75.35518026 -10.85156146 73.33626623 -16 71 C-16 63.41 -16 55.82 -16 48 C-10 45 -10 45 -8 45 C-7.96463304 41.58149186 -8.0065017 38.16813648 -8.0625 34.75 C-8.04606445 33.29787109 -8.04606445 33.29787109 -8.02929688 31.81640625 C-7.98214643 26.61616761 -7.98214643 26.61616761 -10.62060547 22.43554688 C-12.7453241 21.15704027 -12.7453241 21.15704027 -16 20 C-16 15.71 -16 11.42 -16 7 C-13.71070947 5.82845707 -11.41881638 4.66261926 -9.125 3.5 C-8.47402344 3.16613281 -7.82304687 2.83226562 -7.15234375 2.48828125 C-2.2265625 0 -2.2265625 0 0 0 Z " fill="#2A4013" transform="translate(158,154)"/>
<path d="M0 0 C6 2 6 2 8 3 C8 36.99 8 70.98 8 106 C2 104 2 104 0 103 C0 106.3 0 109.6 0 113 C0.763125 113.20625 1.52625 113.4125 2.3125 113.625 C7.49898594 115.55894391 12.19033084 118.2785146 17 121 C17 124.3 17 127.6 17 131 C13.00414893 129.74174849 9.3056554 128.27722771 5.5612793 126.40209961 C4.52388107 125.88493881 3.48648285 125.36777802 2.41764832 124.83494568 C1.31431656 124.27968704 0.2109848 123.72442841 -0.92578125 123.15234375 C-2.06911423 122.58044815 -3.2124472 122.00855255 -4.39042664 121.41932678 C-6.79942468 120.21332037 -9.20760739 119.00583823 -11.61450195 117.7956543 C-14.70388598 116.24242581 -17.79591076 114.69454412 -20.88886738 113.14844418 C-23.83979311 111.67281309 -26.78901487 110.19378784 -29.73828125 108.71484375 C-30.85173416 108.15756088 -31.96518707 107.60027802 -33.11238098 107.02610779 C-34.1340184 106.51209915 -35.15565582 105.99809052 -36.20825195 105.46850586 C-37.56343681 104.78805458 -37.56343681 104.78805458 -38.94599915 104.09385681 C-41 103 -41 103 -42 102 C-42.09333705 100.40389018 -42.11745372 98.80366572 -42.11352539 97.20483398 C-42.11344986 96.18385117 -42.11337433 95.16286835 -42.11329651 94.11094666 C-42.10813522 93.0005452 -42.10297394 91.89014374 -42.09765625 90.74609375 C-42.0962413 89.61551041 -42.09482635 88.48492706 -42.09336853 87.32008362 C-42.08775019 83.69252935 -42.07519458 80.06503576 -42.0625 76.4375 C-42.05748736 73.98502693 -42.05292405 71.5325529 -42.04882812 69.08007812 C-42.0377748 63.05336455 -42.02101884 57.02668661 -42 51 C-38.59687262 52.05875074 -35.98646769 53.00902154 -33 55 C-32.56762695 58.07275391 -32.56762695 58.07275391 -32.48828125 61.9765625 C-32.47033005 62.66181 -32.45237885 63.3470575 -32.43388367 64.05307007 C-32.37966292 66.24365059 -32.34584947 68.4340119 -32.3125 70.625 C-32.27933706 72.10940559 -32.24484835 73.59378221 -32.20898438 75.078125 C-32.12393185 78.71853912 -32.05717644 82.35902944 -32 86 C-30.92878906 86.46148437 -29.85757813 86.92296875 -28.75390625 87.3984375 C-20.15897842 91.35851212 -20.15897842 91.35851212 -17 94 C-15.97601876 96.85861429 -16.03253081 98.78619113 -16.2265625 101.7890625 C-16.24210103 104.1494432 -16.24210103 104.1494432 -14.2109375 105.5234375 C-11.7094538 106.78929053 -11.7094538 106.78929053 -8 108 C-8 105.03 -8 102.06 -8 99 C-2.25 100.875 -2.25 100.875 0 102 C0 68.34 0 34.68 0 0 Z " fill="#466C21" transform="translate(108,147)"/>
<path d="M0 0 C2.64 1.32 5.28 2.64 8 4 C7.9969838 4.63004944 7.99396759 5.26009888 7.99085999 5.90924072 C7.96630972 12.46331266 7.9903603 19.01592474 8.04272461 25.56982422 C8.05586953 28.01607805 8.05659399 30.46243128 8.04467773 32.90869141 C8.02970166 36.42450382 8.05929167 39.9375403 8.09765625 43.453125 C8.08340103 44.5480426 8.06914581 45.64296021 8.05445862 46.77105713 C8.07395065 47.79181335 8.09344269 48.81256958 8.11352539 49.86425781 C8.115746 50.76138489 8.11796661 51.65851196 8.12025452 52.58282471 C9.08733069 56.04997738 9.08733069 56.04997738 16 59 C16 86.06 16 113.12 16 141 C10 139 10 139 0 134 C0 123.44 0 112.88 0 102 C-1.98 101.34 -3.96 100.68 -6 100 C-6.99 99.34 -7.98 98.68 -9 98 C-9.41394695 94.63323148 -9.13087567 91.40276745 -9 88 C-6.03 89.32 -3.06 90.64 0 92 C-0.33 75.17 -0.66 58.34 -1 41 C-3.64 39.68 -6.28 38.36 -9 37 C-9 33.37 -9 29.74 -9 26 C-4.545 27.98 -4.545 27.98 0 30 C0 20.1 0 10.2 0 0 Z " fill="#43661F" transform="translate(33,99)"/>
<path d="M0 0 C6 2 6 2 8 3 C8 50.52 8 98.04 8 147 C2 145 2 145 0 144 C-0.495 133.605 -0.495 133.605 -1 123 C-3.64 121.68 -6.28 120.36 -9 119 C-9 105.14 -9 91.28 -9 77 C-6.03 78.32 -3.06 79.64 0 81 C0 54.27 0 27.54 0 0 Z " fill="#43661F" transform="translate(100,102)"/>
<path d="M0 0 C2.375 1.5625 2.375 1.5625 4 3 C2.29492531 3.74307404 2.29492531 3.74307404 0.55540466 4.50115967 C-1.40583067 5.55483745 -1.40583067 5.55483745 -3 7 C-3.7354932 10.00473624 -3.94976995 11.97047315 -3.88647461 14.98144531 C-3.89725037 15.7818222 -3.90802612 16.5821991 -3.91912842 17.40682983 C-3.94650332 20.04819985 -3.92464965 22.68674613 -3.90234375 25.328125 C-3.91172734 27.16088636 -3.92418421 28.99363435 -3.93959045 30.82635498 C-3.97185357 35.64678817 -3.96236068 40.46627126 -3.94421387 45.28674316 C-3.93306626 50.20689341 -3.96134932 55.12679899 -3.98632812 60.046875 C-4.02950802 69.69808633 -4.02858363 79.3487531 -4 89 C-6.45570175 90.33838733 -8.91429916 91.67086232 -11.375 93 C-12.07367188 93.3815625 -12.77234375 93.763125 -13.4921875 94.15625 C-18.7734375 97 -18.7734375 97 -21 97 C-21 83.47 -21 69.94 -21 56 C-18.36 54.68 -15.72 53.36 -13 52 C-12.67 42.1 -12.34 32.2 -12 22 C-14.97 23.32 -17.94 24.64 -21 26 C-21 22.7 -21 19.4 -21 16 C-21.86625 16.515625 -22.7325 17.03125 -23.625 17.5625 C-27.47272931 19.20134767 -29.04864515 19.20258626 -33 18 C-34.35687935 17.03219 -35.69473502 16.03636919 -37 15 C-32.3401205 12.53240196 -27.6761092 10.07310217 -23.00390625 7.62890625 C-20.08044702 6.09929786 -17.1693065 4.55311261 -14.27734375 2.96484375 C-13.25769531 2.41957031 -12.23804688 1.87429687 -11.1875 1.3125 C-10.31480469 0.83425781 -9.44210938 0.35601562 -8.54296875 -0.13671875 C-5.30987285 -1.2342828 -3.27246227 -0.85998317 0 0 Z " fill="#3D5E1F" transform="translate(221,86)"/>
<path d="M0 0 C2.375 1.5625 2.375 1.5625 4 3 C1.87767021 4.17176518 -0.24757791 5.33754785 -2.375 6.5 C-2.97828125 6.83386719 -3.5815625 7.16773438 -4.203125 7.51171875 C-8.7734375 10 -8.7734375 10 -11 10 C-11 10.66 -11 11.32 -11 12 C-10.030625 12.28875 -9.06125 12.5775 -8.0625 12.875 C-5 14 -5 14 -4 16 C-5.98 16.99 -7.96 17.98 -10 19 C-9.071875 19.680625 -9.071875 19.680625 -8.125 20.375 C-6 22 -6 22 -4 24 C-7.465 25.98 -7.465 25.98 -11 28 C-9.02 28.99 -7.04 29.98 -5 31 C-5 31.66 -5 32.32 -5 33 C-7.19912496 34.20801248 -9.40661819 35.39081947 -11.625 36.5625 C-12.55119141 37.07586914 -12.55119141 37.07586914 -13.49609375 37.59960938 C-17.76601437 39.82446275 -20.37303496 40.36126653 -25 39 C-25.825 38.5875 -26.65 38.175 -27.5 37.75 C-31.10377982 36.66886605 -32.75568569 38.31025296 -36 40 C-39.64389312 39.59690458 -42.56526882 38.4097296 -45.828125 36.78515625 C-47.15070313 36.12676758 -47.15070313 36.12676758 -48.5 35.45507812 C-49.86125 34.76575195 -49.86125 34.76575195 -51.25 34.0625 C-52.17296875 33.60681641 -53.0959375 33.15113281 -54.046875 32.68164062 C-54.9234375 32.24142578 -55.8 31.80121094 -56.703125 31.34765625 C-57.50395508 30.94554932 -58.30478516 30.54344238 -59.12988281 30.12915039 C-61 29 -61 29 -62 27 C-54.81164908 23.31305262 -47.61476091 19.64357939 -40.40639305 15.99594784 C-37.05933834 14.30156537 -33.71551445 12.60137428 -30.37841797 10.88745117 C-27.15645081 9.23293491 -23.92686637 7.59428046 -20.69145584 5.96621895 C-19.45987749 5.34305164 -18.23112447 4.71426711 -17.00535202 4.07975578 C-15.28512386 3.19051473 -13.55362625 2.32317844 -11.82177734 1.45678711 C-10.84026703 0.95714951 -9.85875671 0.4575119 -8.84750366 -0.05726624 C-5.44073567 -1.18515775 -3.43715396 -0.9272537 0 0 Z " fill="#517B26" transform="translate(112,40)"/>
<path d="M0 0 C8.415 3.96 8.415 3.96 17 8 C17 31.76 17 55.52 17 80 C11 78 11 78 0 72 C0 58.47 0 44.94 0 31 C2.31 31.99 4.62 32.98 7 34 C7.33 30.7 7.66 27.4 8 24 C7.05125 23.690625 6.1025 23.38125 5.125 23.0625 C2 22 2 22 0 21 C0 14.07 0 7.14 0 0 Z " fill="#527C29" transform="translate(83,93)"/>
<path d="M0 0 C0 9.9 0 19.8 0 30 C1.98 29.01 3.96 28.02 6 27 C6.66 27 7.32 27 8 27 C8.33 33.27 8.66 39.54 9 46 C13.51958019 43.70068536 13.51958019 43.70068536 18.03466797 41.39257812 C22.77777778 39 22.77777778 39 25 39 C25 42.3 25 45.6 25 49 C23.700625 49.433125 22.40125 49.86625 21.0625 50.3125 C18.74662378 51.30086855 18.74662378 51.30086855 17 53 C16.66838839 55.52732498 16.66838839 55.52732498 16.875 58.3125 C16.86328125 61.2265625 16.86328125 61.2265625 16 64 C11.67743034 67.18851146 5.52164619 71 0 71 C-0.33 64.73 -0.66 58.46 -1 52 C-2.98 52.99 -4.96 53.98 -7 55 C-7.66 55 -8.32 55 -9 55 C-9 38.17 -9 21.34 -9 4 C-2 0 -2 0 0 0 Z " fill="#3D5D1F" transform="translate(209,190)"/>
<path d="M0 0 C2.64 1.32 5.28 2.64 8 4 C8 7.63 8 11.26 8 15 C8.763125 15.20625 9.52625 15.4125 10.3125 15.625 C15.52238746 17.5676699 20.15099789 20.27982809 25 23 C25 29.93 25 36.86 25 44 C19 47 19 47 17 47 C17 44.36 17 41.72 17 39 C16.05125 38.690625 15.1025 38.38125 14.125 38.0625 C11 37 11 37 9 36 C8.67 38.97 8.34 41.94 8 45 C2.421875 43.05208333 2.421875 43.05208333 0 41 C-0.52149548 38.40545225 -0.50006431 35.99377141 -0.52734375 33.3515625 C-0.77318921 30.86941717 -0.77318921 30.86941717 -2.81640625 29.4609375 C-5.29574957 28.20951929 -5.29574957 28.20951929 -9 27 C-9 29.97 -9 32.94 -9 36 C-14.75 34.125 -14.75 34.125 -17 33 C-17 29.7 -17 26.4 -17 23 C-11.25 24.875 -11.25 24.875 -9 26 C-9 19.4 -9 12.8 -9 6 C-4.545 7.98 -4.545 7.98 0 10 C0 6.7 0 3.4 0 0 Z " fill="#527C29" transform="translate(125,114)"/>
<path d="M0 0 C6 2 6 2 8 3 C8 16.53 8 30.06 8 44 C2 42 2 42 0 41 C0 54.53 0 68.06 0 82 C-2.97 80.68 -5.94 79.36 -9 78 C-9 80.97 -9 83.94 -9 87 C-14.75 85.125 -14.75 85.125 -17 84 C-17 80.7 -17 77.4 -17 74 C-11.25 75.875 -11.25 75.875 -9 77 C-9 56.87 -9 36.74 -9 16 C-3 18 -3 18 -1 19 C-0.67 12.73 -0.34 6.46 0 0 Z " fill="#527C29" transform="translate(125,176)"/>
<path d="M0 0 C0 33.99 0 67.98 0 103 C-2.97 104.32 -5.94 105.64 -9 107 C-9 73.01 -9 39.02 -9 4 C-2 0 -2 0 0 0 Z " fill="#233610" transform="translate(234,126)"/>
<path d="M0 0 C2.64 1.32 5.28 2.64 8 4 C8 34.36 8 64.72 8 96 C2 94 2 94 0 93 C-0.33 75.84 -0.66 58.68 -1 41 C-3.64 39.68 -6.28 38.36 -9 37 C-9 33.37 -9 29.74 -9 26 C-4.545 27.98 -4.545 27.98 0 30 C0 20.1 0 10.2 0 0 Z " fill="#304A16" transform="translate(33,99)"/>
<path d="M0 0 C6 2 6 2 8 3 C8 36.99 8 70.98 8 106 C2 104 2 104 0 103 C0 69.01 0 35.02 0 0 Z " fill="#2F4815" transform="translate(108,147)"/>
<path d="M0 0 C0 27.06 0 54.12 0 82 C-2.64 83.32 -5.28 84.64 -8 86 C-8.33 83.03 -8.66 80.06 -9 77 C-9.94875 77.495 -10.8975 77.99 -11.875 78.5 C-15 80 -15 80 -17 80 C-17 76.7 -17 73.4 -17 70 C-10.25 66 -10.25 66 -8 66 C-8 45.54 -8 25.08 -8 4 C-1 0 -1 0 0 0 Z " fill="#233610" transform="translate(192,126)"/>
<path d="M0 0 C4.455 1.98 4.455 1.98 9 4 C9 31.06 9 58.12 9 86 C3 84 3 84 0 82 C-0.28640158 79.33769967 -0.37839379 76.90883447 -0.34057617 74.24560547 C-0.34101425 73.44552063 -0.34145233 72.64543579 -0.34190369 71.82110596 C-0.33980923 69.16955382 -0.31644771 66.51862953 -0.29296875 63.8671875 C-0.28737512 62.03158921 -0.28310392 60.19598645 -0.28010559 58.36038208 C-0.26863844 53.52365809 -0.23915527 48.68720337 -0.20599365 43.85058594 C-0.17533298 38.91735477 -0.16160883 33.98408019 -0.14648438 29.05078125 C-0.11428729 19.36706904 -0.06306845 9.68355689 0 0 Z " fill="#2F4815" transform="translate(66,105)"/>
<path d="M0 0 C0 2.97 0 5.94 0 9 C2.97 7.68 5.94 6.36 9 5 C9 8.3 9 11.6 9 15 C9.98742187 14.4946875 10.97484375 13.989375 11.9921875 13.46875 C13.28635176 12.81228987 14.58062845 12.15605133 15.875 11.5 C16.85146484 10.99919922 16.85146484 10.99919922 17.84765625 10.48828125 C22.7734375 8 22.7734375 8 25 8 C25 11.3 25 14.6 25 18 C19.25 21 19.25 21 17 21 C17 27.93 17 34.86 17 42 C13.04 43.98 13.04 43.98 9 46 C9 39.4 9 32.8 9 26 C6.03 27.32 3.06 28.64 0 30 C0 23.4 0 16.8 0 10 C-5.61 12.64 -11.22 15.28 -17 18 C-17 14.7 -17 11.4 -17 8 C-14.54429825 6.66161267 -12.08570084 5.32913768 -9.625 4 C-8.92632812 3.6184375 -8.22765625 3.236875 -7.5078125 2.84375 C-2.2265625 0 -2.2265625 0 0 0 Z " fill="#38551B" transform="translate(242,112)"/>
<path d="M0 0 C2.53580379 1.2397263 4.04490659 2.21460805 5.8125 4.375 C3.8325 5.365 1.8525 6.355 -0.1875 7.375 C2.1225 8.695 4.4325 10.015 6.8125 11.375 C3.91664095 13.67148357 0.9952969 15.41847557 -2.3125 17.0625 C-3.61574219 17.71798828 -3.61574219 17.71798828 -4.9453125 18.38671875 C-7.1875 19.375 -7.1875 19.375 -9.1875 19.375 C-9.1875 20.035 -9.1875 20.695 -9.1875 21.375 C-8.40375 21.601875 -7.62 21.82875 -6.8125 22.0625 C-2.06448375 23.78160933 2.33352552 26.05584721 6.8125 28.375 C3.68819945 30.84902747 0.45349237 32.81319873 -3.0625 34.6875 C-4.07054687 35.24050781 -5.07859375 35.79351562 -6.1171875 36.36328125 C-11.01702301 37.97785809 -13.91454495 35.97276235 -18.3984375 33.8671875 C-19.44257813 33.33351562 -20.48671875 32.79984375 -21.5625 32.25 C-22.62210938 31.71117187 -23.68171875 31.17234375 -24.7734375 30.6171875 C-25.57007813 30.20726563 -26.36671875 29.79734375 -27.1875 29.375 C-24.890279 27.63228062 -22.58883271 25.97588848 -20.1875 24.375 C-22.1675 23.385 -24.1475 22.395 -26.1875 21.375 C-26.1875 20.715 -26.1875 20.055 -26.1875 19.375 C-25.5262915 19.04701416 -24.86508301 18.71902832 -24.18383789 18.38110352 C-21.20485925 16.90197153 -18.22741421 15.41977839 -15.25 13.9375 C-14.20908203 13.42123047 -13.16816406 12.90496094 -12.09570312 12.37304688 C-11.10634766 11.87998047 -10.11699219 11.38691406 -9.09765625 10.87890625 C-8.18121338 10.42330322 -7.26477051 9.9677002 -6.32055664 9.49829102 C-4.26305771 8.54928387 -4.26305771 8.54928387 -3.1875 7.375 C-5.1675 6.385 -7.1475 5.395 -9.1875 4.375 C-9.1875 3.715 -9.1875 3.055 -9.1875 2.375 C-5.74309612 0.24274998 -4.05620313 -0.79533395 0 0 Z " fill="#5A8A2B" transform="translate(160.1875,72.625)"/>
<path d="M0 0 C2.46048456 0.90888062 2.46048456 0.90888062 5 1 C5.969375 0.484375 6.93875 -0.03125 7.9375 -0.5625 C11 -2 11 -2 14.1875 -1.375 C17 0 17 0 20 3 C12.575 6.96 12.575 6.96 5 11 C9.62 13.31 14.24 15.62 19 18 C19 18.66 19 19.32 19 20 C13.7297956 23.06407233 13.7297956 23.06407233 10.73364258 22.80102539 C7.26738872 21.78532664 4.15106944 20.26134052 0.94921875 18.62109375 C0.29041214 18.28956802 -0.36839447 17.9580423 -1.04716492 17.61647034 C-3.13850906 16.56244158 -5.22551046 15.5001205 -7.3125 14.4375 C-8.73474694 13.71884842 -10.1572702 13.00074341 -11.58007812 12.28320312 C-15.0566167 10.52844785 -18.5292863 8.76624636 -22 7 C-18.83123809 4.5770037 -15.65089613 2.56708076 -12.125 0.6875 C-11.11695312 0.13449219 -10.10890625 -0.41851562 -9.0703125 -0.98828125 C-5.24756348 -2.24794028 -3.62104728 -1.59122078 0 0 Z " fill="#5A8A2B" transform="translate(113,74)"/>
<path d="M0 0 C0.80646973 0.4137085 1.61293945 0.82741699 2.44384766 1.25366211 C3.32685547 1.70161133 4.20986328 2.14956055 5.11962891 2.61108398 C6.47507812 3.31394531 6.47507812 3.31394531 7.85791016 4.03100586 C8.78474609 4.50344727 9.71158203 4.97588867 10.66650391 5.46264648 C12.94244606 6.62408088 15.21429789 7.79283653 17.48291016 8.96850586 C17.48291016 9.62850586 17.48291016 10.28850586 17.48291016 10.96850586 C12.20998288 14.03416126 12.20998288 14.03416126 9.14697266 13.75756836 C4.93176626 12.50907614 1.31965705 10.22357537 -2.48193359 8.05053711 C-7.20624276 6.36632393 -9.94303407 8.23690247 -14.29052734 10.25756836 C-15.14904297 10.69842773 -16.00755859 11.13928711 -16.89208984 11.59350586 C-17.76607422 12.03952148 -18.64005859 12.48553711 -19.54052734 12.94506836 C-20.19279297 13.28280273 -20.84505859 13.62053711 -21.51708984 13.96850586 C-19.20708984 15.28850586 -16.89708984 16.60850586 -14.51708984 17.96850586 C-17.6413904 20.44253333 -20.87609748 22.40670458 -24.39208984 24.28100586 C-25.40013672 24.83401367 -26.40818359 25.38702148 -27.44677734 25.95678711 C-31.30263359 27.22735552 -32.90618099 26.71361083 -36.51708984 24.96850586 C-37.50708984 23.97850586 -38.49708984 22.98850586 -39.51708984 21.96850586 C-34.56708984 19.32850586 -29.61708984 16.68850586 -24.51708984 13.96850586 C-26.49708984 12.97850586 -28.47708984 11.98850586 -30.51708984 10.96850586 C-30.51708984 10.30850586 -30.51708984 9.64850586 -30.51708984 8.96850586 C-26.98881986 7.08798541 -23.4426809 5.24398521 -19.89208984 3.40600586 C-18.89306641 2.87297852 -17.89404297 2.33995117 -16.86474609 1.79077148 C-15.89150391 1.29125977 -14.91826172 0.79174805 -13.91552734 0.27709961 C-13.02526855 -0.18897705 -12.13500977 -0.65505371 -11.21777344 -1.13525391 C-7.04518458 -2.51995592 -3.9876367 -1.63411882 0 0 Z " fill="#517B26" transform="translate(156.51708984375,20.031494140625)"/>
<path d="M0 0 C1.2375 0.61875 1.2375 0.61875 2.5 1.25 C6.10061089 2.33018327 7.735923 0.66534541 11 -1 C15.29203897 -0.82831844 17.79257878 0.16266585 21 3 C17.535 4.98 17.535 4.98 14 7 C15.98 7.99 17.96 8.98 20 10 C20 10.66 20 11.32 20 12 C17.80087504 13.20801248 15.59338181 14.39081947 13.375 15.5625 C12.44880859 16.07586914 12.44880859 16.07586914 11.50390625 16.59960938 C8.66494373 18.07885827 6.40556301 18.99549374 3.1875 19.03125 C-1.58555763 17.48702547 -5.92895016 15.24297663 -10.375 12.9375 C-11.30183594 12.46505859 -12.22867188 11.99261719 -13.18359375 11.50585938 C-15.45953591 10.34442498 -17.73138773 9.17566933 -20 8 C-20 7.34 -20 6.68 -20 6 C-17.80087504 4.79198752 -15.59338181 3.60918053 -13.375 2.4375 C-12.75753906 2.09525391 -12.14007813 1.75300781 -11.50390625 1.40039062 C-7.23398563 -0.82446275 -4.62696504 -1.36126653 0 0 Z " fill="#5C8C2C" transform="translate(87,61)"/>
<path d="M0 0 C0 10.23 0 20.46 0 31 C-7 35 -7 35 -10.25 34.375 C-13 33 -13 33 -16 31 C-16.34057617 28.66162109 -16.34057617 28.66162109 -16.29296875 25.7734375 C-16.28330078 24.7421875 -16.27363281 23.7109375 -16.26367188 22.6484375 C-16.23853516 21.56820313 -16.21339844 20.48796875 -16.1875 19.375 C-16.17396484 18.28703125 -16.16042969 17.1990625 -16.14648438 16.078125 C-16.11104754 13.38492591 -16.06164331 10.69270626 -16 8 C-13.52215037 6.66416771 -11.04281928 5.33123211 -8.5625 4 C-7.85544922 3.6184375 -7.14839844 3.236875 -6.41992188 2.84375 C-1.11328125 0 -1.11328125 0 0 0 Z " fill="#233610" transform="translate(158,256)"/>
<path d="M0 0 C3.40312738 1.05875074 6.01353231 2.00902154 9 4 C9.36076355 6.17666626 9.36076355 6.17666626 9.34057617 8.90869141 C9.34034958 9.92959869 9.34012299 10.95050598 9.33988953 12.00234985 C9.32440567 13.10759003 9.30892181 14.2128302 9.29296875 15.3515625 C9.28872391 16.4807309 9.28447906 17.60989929 9.28010559 18.77328491 C9.26327132 22.39076273 9.22560975 26.00768969 9.1875 29.625 C9.17245934 32.07290864 9.15876986 34.52082598 9.14648438 36.96875 C9.11335227 42.9793556 9.06310579 48.98963846 9 55 C5.59687262 53.94124926 2.98646769 52.99097846 0 51 C-0.36076355 48.82333374 -0.36076355 48.82333374 -0.34057617 46.09130859 C-0.34034958 45.07040131 -0.34012299 44.04949402 -0.33988953 42.99765015 C-0.32440567 41.89240997 -0.30892181 40.7871698 -0.29296875 39.6484375 C-0.28872391 38.5192691 -0.28447906 37.39010071 -0.28010559 36.22671509 C-0.26327132 32.60923727 -0.22560975 28.99231031 -0.1875 25.375 C-0.17245934 22.92709136 -0.15876986 20.47917402 -0.14648438 18.03125 C-0.11335227 12.0206444 -0.06310579 6.01036154 0 0 Z " fill="#2F4815" transform="translate(66,198)"/>
<path d="M0 0 C6 2 6 2 9 4 C9.36076355 6.17666626 9.36076355 6.17666626 9.34057617 8.90869141 C9.34034958 9.92959869 9.34012299 10.95050598 9.33988953 12.00234985 C9.32440567 13.10759003 9.30892181 14.2128302 9.29296875 15.3515625 C9.28872391 16.4807309 9.28447906 17.60989929 9.28010559 18.77328491 C9.26327132 22.39076273 9.22560975 26.00768969 9.1875 29.625 C9.17245934 32.07290864 9.15876986 34.52082598 9.14648438 36.96875 C9.11335214 42.97937991 9.06153674 48.98959647 9 55 C4.545 53.02 4.545 53.02 0 51 C0 34.17 0 17.34 0 0 Z " fill="#43661F" transform="translate(116,141)"/>
<path d="M0 0 C2.64 1.32 5.28 2.64 8 4 C8 14.23 8 24.46 8 35 C4.98875 33.576875 1.9775 32.15375 -1.125 30.6875 C-2.53096436 30.0236731 -2.53096436 30.0236731 -3.96533203 29.34643555 C-8.33557362 27.27859919 -12.68697953 25.18479234 -17 23 C-17 19.37 -17 15.74 -17 12 C-8.585 15.96 -8.585 15.96 0 20 C0 13.4 0 6.8 0 0 Z " fill="#43661F" transform="translate(41,72)"/>
<path d="M0 0 C6 2 6 2 8 3 C8 16.53 8 30.06 8 44 C2 42 2 42 0 41 C-0.09938863 39.23146708 -0.12969223 37.45881725 -0.125 35.6875 C-0.22151279 32.70642848 -0.22151279 32.70642848 -1 30 C-3.58007043 27.73216739 -5.67175396 27.10941535 -9 26 C-9 22.7 -9 19.4 -9 16 C-3.25 17.875 -3.25 17.875 -1 19 C-0.67 12.73 -0.34 6.46 0 0 Z " fill="#4A7223" transform="translate(125,238)"/>
<path d="M0 0 C0 16.83 0 33.66 0 51 C-3.96 52.98 -3.96 52.98 -8 55 C-8 37.84 -8 20.68 -8 3 C-2 0 -2 0 0 0 Z " fill="#233610" transform="translate(192,219)"/>
<path d="M0 0 C0 17.16 0 34.32 0 52 C-6 55 -6 55 -8 55 C-8 38.17 -8 21.34 -8 4 C-1 0 -1 0 0 0 Z " fill="#233610" transform="translate(267,181)"/>
<path d="M0 0 C6.19053798 1.89206354 11.36593085 4.83942462 17 8 C17 14.93 17 21.86 17 29 C11 32 11 32 9 32 C9 29.36 9 26.72 9 24 C8.071875 23.71125 7.14375 23.4225 6.1875 23.125 C3 22 3 22 0 20 C-0.34057617 17.93701172 -0.34057617 17.93701172 -0.29296875 15.4296875 C-0.28330078 14.53378906 -0.27363281 13.63789063 -0.26367188 12.71484375 C-0.23853516 11.77769531 -0.21339844 10.84054688 -0.1875 9.875 C-0.17396484 8.93011719 -0.16042969 7.98523438 -0.14648438 7.01171875 C-0.11106306 4.67391221 -0.06167271 2.33723763 0 0 Z " fill="#4A7223" transform="translate(133,129)"/>
<path d="M0 0 C2.375 1.5625 2.375 1.5625 4 3 C2.02 4.32 0.04 5.64 -2 7 C-0.02 7.99 1.96 8.98 4 10 C4 10.66 4 11.32 4 12 C-1.2519084 15.05343511 -1.2519084 15.05343511 -4.625 14.8125 C-7 14 -7 14 -11 12 C-11.33 18.27 -11.66 24.54 -12 31 C-18 29 -18 29 -20 28 C-20 20.74 -20 13.48 -20 6 C-17.81375 4.824375 -15.6275 3.64875 -13.375 2.4375 C-12.69872559 2.06294678 -12.02245117 1.68839355 -11.32568359 1.30249023 C-7.11990654 -0.87631042 -4.53268722 -1.3703473 0 0 Z " fill="#38571A" transform="translate(53,61)"/>
<path d="M0 0 C6 2 6 2 9 4 C9.34057617 6.15478516 9.34057617 6.15478516 9.29296875 8.7890625 C9.28330078 9.73007813 9.27363281 10.67109375 9.26367188 11.640625 C9.23853516 12.62546875 9.21339844 13.6103125 9.1875 14.625 C9.17396484 15.61757812 9.16042969 16.61015625 9.14648438 17.6328125 C9.11105743 20.08908072 9.06166196 22.54427285 9 25 C9.94875 25.309375 10.8975 25.61875 11.875 25.9375 C15 27 15 27 17 28 C17 31.63 17 35.26 17 39 C11.39 36.36 5.78 33.72 0 31 C0 20.77 0 10.54 0 0 Z " fill="#527C29" transform="translate(49,210)"/>
<path d="M0 0 C0.33 2.97 0.66 5.94 1 9 C2.423125 8.2575 2.423125 8.2575 3.875 7.5 C7 6 7 6 9 6 C9 12.6 9 19.2 9 26 C2 30 2 30 0 30 C-0.33 27.03 -0.66 24.06 -1 21 C-3.31 21.99 -5.62 22.98 -8 24 C-8 17.07 -8 10.14 -8 3 C-2 0 -2 0 0 0 Z " fill="#324C17" transform="translate(158,123)"/>
<path d="M0 0 C0 3.3 0 6.6 0 10 C-1.9490625 10.6496875 -1.9490625 10.6496875 -3.9375 11.3125 C-6.25337622 12.30086855 -6.25337622 12.30086855 -8 14 C-8.33161161 16.52732498 -8.33161161 16.52732498 -8.125 19.3125 C-8.13671875 22.2265625 -8.13671875 22.2265625 -9 25 C-13.32256966 28.18851146 -19.47835381 32 -25 32 C-25 28.7 -25 25.4 -25 22 C-23.2984375 21.319375 -23.2984375 21.319375 -21.5625 20.625 C-19.51995536 19.61240273 -19.51995536 19.61240273 -18 18 C-17.78595106 15.73487483 -17.78595106 15.73487483 -18 13.25 C-17.96484375 10.6171875 -17.96484375 10.6171875 -17 8 C-12.87969006 4.4888274 -5.43885786 0 0 0 Z " fill="#38551B" transform="translate(234,229)"/>
<path d="M0 0 C6 2 6 2 8 3 C8.09938863 4.76853292 8.12969223 6.54118275 8.125 8.3125 C8.22151279 11.29357152 8.22151279 11.29357152 9 14 C11.58007043 16.26783261 13.67175396 16.89058465 17 18 C17 21.3 17 24.6 17 28 C11.25 26.125 11.25 26.125 9 25 C8.67 27.97 8.34 30.94 8 34 C2.25 32.125 2.25 32.125 0 31 C0 20.77 0 10.54 0 0 Z " fill="#43661F" transform="translate(58,81)"/>
<path d="M0 0 C0 13.53 0 27.06 0 41 C-6 44 -6 44 -8 44 C-8 30.47 -8 16.94 -8 3 C-2 0 -2 0 0 0 Z " fill="#283E14" transform="translate(267,130)"/>
<path d="M0 0 C3.96 1.98 3.96 1.98 8 4 C8 17.53 8 31.06 8 45 C5.36 43.68 2.72 42.36 0 41 C0 27.47 0 13.94 0 0 Z " fill="#456920" transform="translate(58,132)"/>
<path d="M0 0 C6 2 6 2 8 3 C8 16.53 8 30.06 8 44 C2 42 2 42 0 41 C0 27.47 0 13.94 0 0 Z " fill="#4A7223" transform="translate(100,102)"/>
<path d="M0 0 C2.44960602 1.06288875 4.78294156 2.15710483 7.1484375 3.37890625 C7.80582916 3.71043198 8.46322083 4.0419577 9.14053345 4.38352966 C11.22259399 5.43568235 13.29878477 6.49886712 15.375 7.5625 C16.79259456 8.28133736 18.21055988 8.99944407 19.62890625 9.71679688 C23.09028407 11.46944065 26.54644472 13.23199534 30 15 C27.13197764 17.33690711 24.63709103 19.1826027 21 20 C18.29392748 19.06162221 16.05377215 18.08826439 13.546875 16.765625 C12.84604797 16.41240173 12.14522095 16.05917847 11.42315674 15.69525146 C9.94644203 14.94682588 8.47406417 14.18978957 7.00585938 13.42480469 C4.75260291 12.25135554 2.48747454 11.10414662 0.21875 9.9609375 C-1.2143031 9.23065893 -2.64662173 8.49893691 -4.078125 7.765625 C-4.75723938 7.41969299 -5.43635376 7.07376099 -6.13604736 6.71734619 C-10.88278486 4.23443028 -10.88278486 4.23443028 -12 2 C-7.41625107 -0.72842198 -5.15278623 -1.27556146 0 0 Z " fill="#3E5F1E" transform="translate(221,44)"/>
<path d="M0 0 C1.04414063 0.54527344 2.08828125 1.09054688 3.1640625 1.65234375 C4.22367188 2.20019531 5.28328125 2.74804688 6.375 3.3125 C7.17164063 3.73402344 7.96828125 4.15554687 8.7890625 4.58984375 C8.7890625 5.24984375 8.7890625 5.90984375 8.7890625 6.58984375 C6.56796722 7.79506595 4.339276 8.97871779 2.1015625 10.15234375 C1.47572266 10.49458984 0.84988281 10.83683594 0.20507812 11.18945312 C-2.51678813 12.60026338 -4.64487602 13.60382058 -7.7421875 13.52734375 C-11.00518462 12.28823092 -13.9726124 10.72224658 -17.0234375 9.02734375 C-17.62091797 8.69798828 -18.21839844 8.36863281 -18.83398438 8.02929688 C-20.29627748 7.22211108 -21.7540774 6.40679458 -23.2109375 5.58984375 C-20.37778647 3.37032451 -17.51674787 1.52438507 -14.3359375 -0.16015625 C-13.51351562 -0.60875 -12.69109375 -1.05734375 -11.84375 -1.51953125 C-7.37414366 -3.03150491 -4.21621316 -1.85164593 0 0 Z " fill="#5A8A2B" transform="translate(224.2109375,62.41015625)"/>
<path d="M0 0 C0 10.23 0 20.46 0 31 C-2.97 32.32 -5.94 33.64 -9 35 C-9 24.77 -9 14.54 -9 4 C-2 0 -2 0 0 0 Z " fill="#233610" transform="translate(234,85)"/>
<path d="M0 0 C0.95132813 0.53367187 1.90265625 1.06734375 2.8828125 1.6171875 C3.84960938 2.15601563 4.81640625 2.69484375 5.8125 3.25 C6.89917969 3.86488281 6.89917969 3.86488281 8.0078125 4.4921875 C5.17466147 6.71170674 2.31362287 8.55764618 -0.8671875 10.2421875 C-1.68960938 10.69078125 -2.51203125 11.139375 -3.359375 11.6015625 C-7.82898134 13.11353616 -10.98691184 11.93367718 -15.203125 10.08203125 C-16.24726563 9.53675781 -17.29140625 8.99148437 -18.3671875 8.4296875 C-19.42679688 7.88183594 -20.48640625 7.33398438 -21.578125 6.76953125 C-22.37476563 6.34800781 -23.17140625 5.92648438 -23.9921875 5.4921875 C-21.44479516 2.59463813 -18.57668811 0.97005637 -15.1796875 -0.8203125 C-14.16261719 -1.37332031 -13.14554688 -1.92632813 -12.09765625 -2.49609375 C-7.21437497 -4.08699922 -4.40568073 -2.22009499 0 0 Z " fill="#5A8A2B" transform="translate(157.9921875,29.5078125)"/>
<path d="M0 0 C0 2.97 0 5.94 0 9 C2.97 7.68 5.94 6.36 9 5 C9 8.63 9 12.26 9 16 C3.39 18.64 -2.22 21.28 -8 24 C-8 17.07 -8 10.14 -8 3 C-2 0 -2 0 0 0 Z " fill="#324C17" transform="translate(200,246)"/>
<path d="M0 0 C0 6.6 0 13.2 0 20 C-3.96 21.98 -3.96 21.98 -8 24 C-8.33 21.03 -8.66 18.06 -9 15 C-9.94875 15.495 -10.8975 15.99 -11.875 16.5 C-15 18 -15 18 -17 18 C-17 14.7 -17 11.4 -17 8 C-14.54429825 6.66161267 -12.08570084 5.32913768 -9.625 4 C-8.92632812 3.6184375 -8.22765625 3.236875 -7.5078125 2.84375 C-2.2265625 0 -2.2265625 0 0 0 Z " fill="#283E14" transform="translate(192,188)"/>
<path d="M0 0 C8.415 3.96 8.415 3.96 17 8 C17 11.3 17 14.6 17 18 C11.25 16.125 11.25 16.125 9 15 C8.67 17.97 8.34 20.94 8 24 C2.25 22.125 2.25 22.125 0 21 C0 14.07 0 7.14 0 0 Z " fill="#4A7223" transform="translate(83,165)"/>
<path d="M0 0 C6 2 6 2 8 3 C8 13.23 8 23.46 8 34 C2 32 2 32 0 31 C0 20.77 0 10.54 0 0 Z " fill="#2F4815" transform="translate(33,202)"/>
<path d="M0 0 C0 10.23 0 20.46 0 31 C-6 34 -6 34 -8 34 C-8 23.77 -8 13.54 -8 3 C-2 0 -2 0 0 0 Z " fill="#324C17" transform="translate(242,122)"/>
<path d="M0 0 C6 2 6 2 8 3 C8 13.23 8 23.46 8 34 C2 32 2 32 0 31 C0 20.77 0 10.54 0 0 Z " fill="#2F4815" transform="translate(108,106)"/>
<path d="M0 0 C0 10.23 0 20.46 0 31 C-6 34 -6 34 -8 34 C-8 23.77 -8 13.54 -8 3 C-2 0 -2 0 0 0 Z " fill="#233610" transform="translate(267,89)"/>
<path d="M0 0 C0 3.3 0 6.6 0 10 C-5.75 13 -5.75 13 -8 13 C-8 16.63 -8 20.26 -8 24 C-11.96 25.98 -11.96 25.98 -16 28 C-16 21.07 -16 14.14 -16 7 C-13.73125 5.845 -11.4625 4.69 -9.125 3.5 C-8.41230957 3.13455078 -7.69961914 2.76910156 -6.96533203 2.39257812 C-2.22222222 0 -2.22222222 0 0 0 Z " fill="#38551B" transform="translate(267,79)"/>
<path d="M0 0 C2.375 1.5625 2.375 1.5625 4 3 C2.865625 3.433125 1.73125 3.86625 0.5625 4.3125 C-1.46695585 5.30857396 -1.46695585 5.30857396 -3 7 C-3.52240932 9.8604051 -3.56311938 12.58830733 -3.6328125 15.4921875 C-4 18 -4 18 -6.9375 20.1875 C-10 21 -10 21 -12 21 C-12 17.7 -12 14.4 -12 11 C-12.94875 10.690625 -13.8975 10.38125 -14.875 10.0625 C-18 9 -18 9 -20 8 C-20 7.34 -20 6.68 -20 6 C-17.80087504 4.79198752 -15.59338181 3.60918053 -13.375 2.4375 C-12.75753906 2.09525391 -12.14007813 1.75300781 -11.50390625 1.40039062 C-7.24342705 -0.81954328 -4.61511681 -1.39526787 0 0 Z " fill="#3F611F" transform="translate(179,107)"/>
<path d="M0 0 C0 10.23 0 20.46 0 31 C-2.64 29.68 -5.28 28.36 -8 27 C-8 19.41 -8 11.82 -8 4 C-1 0 -1 0 0 0 Z " fill="#2F4815" transform="translate(150,260)"/>
<path d="M0 0 C2.29982654 1.3327741 3.74634113 2.58154037 5.5546875 4.48046875 C1.77117199 6.61993267 -2.04995773 8.68090952 -5.8828125 10.73046875 C-6.95208984 11.33632812 -8.02136719 11.9421875 -9.12304688 12.56640625 C-17.06515606 16.74390711 -17.06515606 16.74390711 -21.23876953 15.94726562 C-23.47853298 14.9518152 -25.44506746 13.89135302 -27.4453125 12.48046875 C-23.1161579 9.09712291 -18.43976564 6.67998823 -13.5703125 4.16796875 C-12.68472656 3.68779297 -11.79914063 3.20761719 -10.88671875 2.71289062 C-4.33071711 -0.65304464 -4.33071711 -0.65304464 0 0 Z " fill="#40631F" transform="translate(135.4453125,93.51953125)"/>
<path d="M0 0 C1.05960938 0.53882813 2.11921875 1.07765625 3.2109375 1.6328125 C4.00757813 2.04273438 4.80421875 2.45265625 5.625 2.875 C0.53804535 6.93715553 -5.12201917 10.03851217 -11.375 11.875 C-14.90634446 11.19811525 -16.43079637 10.06872035 -19.375 7.875 C-18.75625 7.42125 -18.1375 6.9675 -17.5 6.5 C-15.31580167 4.90391081 -15.31580167 4.90391081 -13.375 2.875 C-15.355 1.885 -17.335 0.895 -19.375 -0.125 C-12.8496409 -7.30289501 -7.84090617 -4.00757426 0 0 Z " fill="#517B26" transform="translate(144.375,56.125)"/>
<path d="M0 0 C0 9.9 0 19.8 0 30 C-2.64 28.68 -5.28 27.36 -8 26 C-8 18.41 -8 10.82 -8 3 C-2 0 -2 0 0 0 Z " fill="#36531A" transform="translate(150,199)"/>
<path d="M0 0 C1.63324373 0.68385819 3.2430915 1.4256569 4.828125 2.21484375 C5.70984375 2.65376953 6.5915625 3.09269531 7.5 3.54492188 C8.4075 4.00447266 9.315 4.46402344 10.25 4.9375 C11.17296875 5.39318359 12.0959375 5.84886719 13.046875 6.31835938 C13.9234375 6.75857422 14.8 7.19878906 15.703125 7.65234375 C16.50395508 8.05445068 17.30478516 8.45655762 18.12988281 8.87084961 C20 10 20 10 21 12 C15.70333391 15.07945703 15.70333391 15.07945703 12.59472656 14.72827148 C9.93160696 13.98080387 7.64656435 13.017302 5.171875 11.78515625 C4.29015625 11.34623047 3.4084375 10.90730469 2.5 10.45507812 C1.5925 9.99552734 0.685 9.53597656 -0.25 9.0625 C-1.63445312 8.37897461 -1.63445312 8.37897461 -3.046875 7.68164062 C-4.36171875 7.02131836 -4.36171875 7.02131836 -5.703125 6.34765625 C-6.50395508 5.94554932 -7.30478516 5.54344238 -8.12988281 5.12915039 C-10 4 -10 4 -11 2 C-6.76143888 -0.46427972 -4.71572592 -1.32358021 0 0 Z " fill="#517B26" transform="translate(103,86)"/>
<path d="M0 0 C6 2 6 2 9 4 C9.34057617 6.15478516 9.34057617 6.15478516 9.29296875 8.7890625 C9.28330078 9.73007813 9.27363281 10.67109375 9.26367188 11.640625 C9.23853516 12.62546875 9.21339844 13.6103125 9.1875 14.625 C9.17396484 15.61757812 9.16042969 16.61015625 9.14648438 17.6328125 C9.11106189 20.08877161 9.05725369 22.54445282 9 25 C4.545 23.02 4.545 23.02 0 21 C0 14.07 0 7.14 0 0 Z " fill="#4A7223" transform="translate(91,200)"/>
<path d="M0 0 C0 6.93 0 13.86 0 21 C-2.97 22.32 -5.94 23.64 -9 25 C-9 18.07 -9 11.14 -9 4 C-1 0 -1 0 0 0 Z " fill="#283E14" transform="translate(234,208)"/>
<path d="M0 0 C4.455 1.98 4.455 1.98 9 4 C9 10.93 9 17.86 9 25 C4.545 23.02 4.545 23.02 0 21 C0 14.07 0 7.14 0 0 Z " fill="#43661F" transform="translate(133,149)"/>
<path d="M0 0 C3.40312738 1.05875074 6.01353231 2.00902154 9 4 C9.34057617 6.06298828 9.34057617 6.06298828 9.29296875 8.5703125 C9.28330078 9.46621094 9.27363281 10.36210937 9.26367188 11.28515625 C9.23853516 12.22230469 9.21339844 13.15945312 9.1875 14.125 C9.17396484 15.06988281 9.16042969 16.01476562 9.14648438 16.98828125 C9.11106306 19.32608779 9.06167271 21.66276237 9 24 C5.59687262 22.94124926 2.98646769 21.99097846 0 20 C-0.34057617 17.93701172 -0.34057617 17.93701172 -0.29296875 15.4296875 C-0.28330078 14.53378906 -0.27363281 13.63789063 -0.26367188 12.71484375 C-0.23853516 11.77769531 -0.21339844 10.84054688 -0.1875 9.875 C-0.17396484 8.93011719 -0.16042969 7.98523438 -0.14648438 7.01171875 C-0.11106306 4.67391221 -0.06167271 2.33723763 0 0 Z " fill="#36531A" transform="translate(66,167)"/>
<path d="M0 0 C0 3.63 0 7.26 0 11 C-5.61 13.64 -11.22 16.28 -17 19 C-17 15.37 -17 11.74 -17 8 C-14.35535616 6.66426106 -11.70937327 5.33130754 -9.0625 4 C-8.30775391 3.6184375 -7.55300781 3.236875 -6.77539062 2.84375 C-6.05673828 2.4828125 -5.33808594 2.121875 -4.59765625 1.75 C-3.93258057 1.41484375 -3.26750488 1.0796875 -2.58227539 0.734375 C-1 0 -1 0 0 0 Z " fill="#72755C" transform="translate(276,166)"/>
<path d="M0 0 C8.415 3.96 8.415 3.96 17 8 C17 11.63 17 15.26 17 19 C11.39 16.36 5.78 13.72 0 11 C0 7.37 0 3.74 0 0 Z " fill="#989C7B" transform="translate(24,84)"/>
<path d="M0 0 C6.16356805 1.6658292 11.48259656 4.87805286 17 8 C17 11.3 17 14.6 17 18 C10.83643195 16.3341708 5.51740344 13.12194714 0 10 C0 6.7 0 3.4 0 0 Z " fill="#43661F" transform="translate(108,260)"/>
<path d="M0 0 C8.415 3.96 8.415 3.96 17 8 C17 11.3 17 14.6 17 18 C10.83643195 16.3341708 5.51740344 13.12194714 0 10 C0 6.7 0 3.4 0 0 Z " fill="#989C7B" transform="translate(24,187)"/>
<path d="M0 0 C4.14667871 1.38222624 7.55940815 2.66564202 11.375 4.625 C12.24898437 5.07101563 13.12296875 5.51703125 14.0234375 5.9765625 C14.67570313 6.31429687 15.32796875 6.65203125 16 7 C15.71118164 8.87988281 15.71118164 8.87988281 15 11 C12.45211156 12.4492036 10.11397477 13.61221266 7.4375 14.75 C4.983125 15.8225 2.52875 16.895 0 18 C0 12.06 0 6.12 0 0 Z " fill="#2F4815" transform="translate(142,236)"/>
<path d="M0 0 C7.92 3.96 7.92 3.96 16 8 C16 11.3 16 14.6 16 18 C10.29292318 16.34795145 5.2674848 13.70492463 0 11 C0 7.37 0 3.74 0 0 Z " fill="#989C7B" transform="translate(142,225)"/>
<path d="M0 0 C0 3.63 0 7.26 0 11 C-2.28929053 12.17154293 -4.58118362 13.33738074 -6.875 14.5 C-7.52597656 14.83386719 -8.17695313 15.16773437 -8.84765625 15.51171875 C-13.7734375 18 -13.7734375 18 -16 18 C-16 14.7 -16 11.4 -16 8 C-13.52215037 6.66416771 -11.04281928 5.33123211 -8.5625 4 C-7.85544922 3.6184375 -7.14839844 3.236875 -6.41992188 2.84375 C-1.11328125 0 -1.11328125 0 0 0 Z " fill="#324C17" transform="translate(267,68)"/>
<path d="M0 0 C3.96 1.98 3.96 1.98 8 4 C8 10.6 8 17.2 8 24 C2 22 2 22 0 21 C0 14.07 0 7.14 0 0 Z " fill="#36531A" transform="translate(108,229)"/>
<path d="M0 0 C3.96 1.98 3.96 1.98 8 4 C8 10.6 8 17.2 8 24 C2 22 2 22 0 21 C0 14.07 0 7.14 0 0 Z " fill="#43661F" transform="translate(58,214)"/>
<path d="M0 0 C3.96 1.98 3.96 1.98 8 4 C8 10.93 8 17.86 8 25 C2 28 2 28 0 28 C-0.28527105 24.62112287 -0.45018698 21.36826645 0 18 C2.43850852 15.81817659 3.7321149 15 7 15 C7 14.34 7 13.68 7 13 C6.030625 12.690625 5.06125 12.38125 4.0625 12.0625 C1 11 1 11 0 10 C-0.07205511 8.31391034 -0.08386068 6.62499341 -0.0625 4.9375 C-0.05347656 4.01839844 -0.04445312 3.09929687 -0.03515625 2.15234375 C-0.02355469 1.44207031 -0.01195312 0.73179687 0 0 Z " fill="#72755C" transform="translate(142,174)"/>
<path d="M0 0 C3.96 1.98 3.96 1.98 8 4 C8 10.93 8 17.86 8 25 C2 28 2 28 0 28 C-0.28527105 24.62112287 -0.45018698 21.36826645 0 18 C2.43850852 15.81817659 3.7321149 15 7 15 C7 14.34 7 13.68 7 13 C6.030625 12.690625 5.06125 12.38125 4.0625 12.0625 C1 11 1 11 0 10 C-0.07205511 8.31391034 -0.08386068 6.62499341 -0.0625 4.9375 C-0.05347656 4.01839844 -0.04445312 3.09929687 -0.03515625 2.15234375 C-0.02355469 1.44207031 -0.01195312 0.73179687 0 0 Z " fill="#72755C" transform="translate(142,133)"/>
<path d="M0 0 C0 6.6 0 13.2 0 20 C-3.96 21.98 -3.96 21.98 -8 24 C-8 17.07 -8 10.14 -8 3 C-2 0 -2 0 0 0 Z " fill="#233610" transform="translate(267,130)"/>
<path d="M0 0 C0 6.6 0 13.2 0 20 C-3.96 21.98 -3.96 21.98 -8 24 C-8 17.07 -8 10.14 -8 3 C-2 0 -2 0 0 0 Z " fill="#233610" transform="translate(158,123)"/>
<path d="M0 0 C0 6.93 0 13.86 0 21 C-6 24 -6 24 -8 24 C-8 17.4 -8 10.8 -8 4 C-1 0 -1 0 0 0 Z " fill="#324C17" transform="translate(259,103)"/>
<path d="M0 0 C3.96 1.98 3.96 1.98 8 4 C8 10.6 8 17.2 8 24 C2 22 2 22 0 21 C0 14.07 0 7.14 0 0 Z " fill="#2F4815" transform="translate(33,68)"/>
<path d="M0 0 C0 3.3 0 6.6 0 10 C-7.92 13.96 -7.92 13.96 -16 18 C-16 14.7 -16 11.4 -16 8 C-13.52215037 6.66416771 -11.04281928 5.33123211 -8.5625 4 C-7.85544922 3.6184375 -7.14839844 3.236875 -6.41992188 2.84375 C-1.11328125 0 -1.11328125 0 0 0 Z " fill="#72755C" transform="translate(158,246)"/>
<path d="M0 0 C3.15625647 -0.1506293 3.15625647 -0.1506293 6 -1 C7.32 -1.33 8.64 -1.66 10 -2 C10 1.3 10 4.6 10 8 C6.04 9.98 6.04 9.98 2 12 C2 8.7 2 5.4 2 2 C0.02 3.11375 0.02 3.11375 -2 4.25 C-4.87655 5.5629103 -6.28744794 6.18720579 -9.37890625 5.375 C-11.35512837 4.35683905 -13.18690164 3.28448385 -15 2 C-13.68946944 0.97029741 -12.35113205 -0.02418241 -11 -1 C-10.401875 -1.45375 -9.80375 -1.9075 -9.1875 -2.375 C-5.71735185 -3.3664709 -3.23091983 -1.39263786 0 0 Z " fill="#38551A" transform="translate(232,83)"/>
<path d="M0 0 C2.3125 1.0625 2.3125 1.0625 4 2 C4 2.66 4 3.32 4 4 C1.80087504 5.20801248 -0.40661819 6.39081947 -2.625 7.5625 C-3.55119141 8.07586914 -3.55119141 8.07586914 -4.49609375 8.59960938 C-7.56974062 10.20114117 -9.72465929 11.00837411 -13.2109375 10.90234375 C-16.0249992 9.99191202 -17.79664117 8.94912512 -20 7 C-17.61298157 5.62783972 -15.21744946 4.27756021 -12.8125 2.9375 C-12.13896484 2.54755859 -11.46542969 2.15761719 -10.77148438 1.75585938 C-6.84245351 -0.4098991 -4.45292203 -1.67791265 0 0 Z " fill="#517B26" transform="translate(103,69)"/>
<path d="M0 0 C2.73746446 1.48293967 5.45838328 2.99025569 8.16796875 4.5234375 C4.94834486 7.37156632 2.48167697 8.39224199 -1.83203125 8.5234375 C-4.47990652 7.48299829 -6.74657858 6.44971659 -9.20703125 5.0859375 C-9.84769531 4.74755859 -10.48835938 4.40917969 -11.1484375 4.06054688 C-12.717356 3.22925424 -14.27582241 2.37828647 -15.83203125 1.5234375 C-10.14315813 -4.29363558 -7.21450751 -3.76149495 0 0 Z " fill="#416420" transform="translate(65.83203125,75.4765625)"/>
<path d="M0 0 C0 6.6 0 13.2 0 20 C-2.64 18.68 -5.28 17.36 -8 16 C-8 11.71 -8 7.42 -8 3 C-2.25 0 -2.25 0 0 0 Z " fill="#2F4815" transform="translate(150,158)"/>
<path d="M0 0 C0 3.63 0 7.26 0 11 C-2.97 12.32 -5.94 13.64 -9 15 C-9 11.37 -9 7.74 -9 4 C-1.125 0 -1.125 0 0 0 Z " fill="#324C17" transform="translate(184,243)"/>
<path d="M0 0 C0 3.63 0 7.26 0 11 C-2.97 12.32 -5.94 13.64 -9 15 C-9 11.37 -9 7.74 -9 4 C-1.125 0 -1.125 0 0 0 Z " fill="#3D5D1F" transform="translate(251,230)"/>
<path d="M0 0 C4.455 1.98 4.455 1.98 9 4 C9 7.63 9 11.26 9 15 C4.545 13.02 4.545 13.02 0 11 C0 7.37 0 3.74 0 0 Z " fill="#82895A" transform="translate(66,187)"/>
<path d="M0 0 C0 3.63 0 7.26 0 11 C-2.97 12.32 -5.94 13.64 -9 15 C-9 11.37 -9 7.74 -9 4 C-1.125 0 -1.125 0 0 0 Z " fill="#324C17" transform="translate(184,171)"/>
<path d="M0 0 C4.455 1.98 4.455 1.98 9 4 C9 7.63 9 11.26 9 15 C4.545 13.02 4.545 13.02 0 11 C0 7.37 0 3.74 0 0 Z " fill="#989C7B" transform="translate(24,125)"/>
<path d="M0 0 C0 3.63 0 7.26 0 11 C-2.97 12.32 -5.94 13.64 -9 15 C-9 11.37 -9 7.74 -9 4 C-1.125 0 -1.125 0 0 0 Z " fill="#2D4515" transform="translate(234,105)"/>
<path d="M0 0 C4.455 1.98 4.455 1.98 9 4 C9 7.63 9 11.26 9 15 C4.545 13.02 4.545 13.02 0 11 C0 7.37 0 3.74 0 0 Z " fill="#527C29" transform="translate(49,76)"/>
<path d="M0 0 C0 3.3 0 6.6 0 10 C-6.75 14 -6.75 14 -9 14 C-9 10.7 -9 7.4 -9 4 C-2.25 0 -2.25 0 0 0 Z " fill="#233610" transform="translate(234,239)"/>
<path d="M0 0 C0 3.3 0 6.6 0 10 C-6.75 14 -6.75 14 -9 14 C-9 10.7 -9 7.4 -9 4 C-2.25 0 -2.25 0 0 0 Z " fill="#324C17" transform="translate(184,192)"/>
<path d="M0 0 C0 3.3 0 6.6 0 10 C-6.75 14 -6.75 14 -9 14 C-9 10.7 -9 7.4 -9 4 C-2.25 0 -2.25 0 0 0 Z " fill="#72755C" transform="translate(209,159)"/>
<path d="M0 0 C3.40312738 1.05875074 6.01353231 2.00902154 9 4 C9.29296875 6.3828125 9.29296875 6.3828125 9.1875 9.125 C9.16042969 10.03507813 9.13335937 10.94515625 9.10546875 11.8828125 C9.07066406 12.58148438 9.03585938 13.28015625 9 14 C5.59687262 12.94124926 2.98646769 11.99097846 0 10 C-0.29296875 7.6171875 -0.29296875 7.6171875 -0.1875 4.875 C-0.16042969 3.96492187 -0.13335937 3.05484375 -0.10546875 2.1171875 C-0.07066406 1.41851562 -0.03585938 0.71984375 0 0 Z " fill="#36531A" transform="translate(66,126)"/>
<path d="M0 0 C3.40312738 1.05875074 6.01353231 2.00902154 9 4 C9.29296875 6.3828125 9.29296875 6.3828125 9.1875 9.125 C9.16042969 10.03507812 9.13335937 10.94515625 9.10546875 11.8828125 C9.07066406 12.58148438 9.03585938 13.28015625 9 14 C5.59687262 12.94124926 2.98646769 11.99097846 0 10 C-0.29296875 7.6171875 -0.29296875 7.6171875 -0.1875 4.875 C-0.16042969 3.96492188 -0.13335937 3.05484375 -0.10546875 2.1171875 C-0.07066406 1.41851562 -0.03585938 0.71984375 0 0 Z " fill="#4A7223" transform="translate(116,110)"/>
<path d="M0 0 C0 3.3 0 6.6 0 10 C-2.97 11.32 -5.94 12.64 -9 14 C-9 10.7 -9 7.4 -9 4 C-2.25 0 -2.25 0 0 0 Z " fill="#38551B" transform="translate(184,254)"/>
<path d="M0 0 C0 3.3 0 6.6 0 10 C-2.97 11.32 -5.94 12.64 -9 14 C-9 10.7 -9 7.4 -9 4 C-2.25 0 -2.25 0 0 0 Z " fill="#72755C" transform="translate(234,229)"/>
<path d="M0 0 C3.40312738 1.05875074 6.01353231 2.00902154 9 4 C9.41394695 7.36676852 9.13087567 10.59723255 9 14 C4.545 12.02 4.545 12.02 0 10 C0 6.7 0 3.4 0 0 Z " fill="#4A7223" transform="translate(116,182)"/>
<path d="M0 0 C0 3.3 0 6.6 0 10 C-6.75 14 -6.75 14 -9 14 C-9 10.7 -9 7.4 -9 4 C-1.125 0 -1.125 0 0 0 Z " fill="#38551B" transform="translate(184,161)"/>
<path d="M0 0 C3.40312738 1.05875074 6.01353231 2.00902154 9 4 C9.41394695 7.36676852 9.13087567 10.59723255 9 14 C4.545 12.02 4.545 12.02 0 10 C0 6.7 0 3.4 0 0 Z " fill="#4A7223" transform="translate(116,141)"/>
<path d="M0 0 C0 3.3 0 6.6 0 10 C-2.97 11.32 -5.94 12.64 -9 14 C-9 10.7 -9 7.4 -9 4 C-2.25 0 -2.25 0 0 0 Z " fill="#616643" transform="translate(234,116)"/>
<path d="M0 0 C4.455 1.98 4.455 1.98 9 4 C9 7.3 9 10.6 9 14 C5.59687262 12.94124926 2.98646769 11.99097846 0 10 C-0.41394695 6.63323148 -0.13087567 3.40276745 0 0 Z " fill="#989C7B" transform="translate(66,95)"/>
<path d="M0 0 C3.96 1.98 3.96 1.98 8 4 C8 7.3 8 10.6 8 14 C2.25 12.125 2.25 12.125 0 11 C0 7.37 0 3.74 0 0 Z " fill="#527C29" transform="translate(125,268)"/>
<path d="M0 0 C5.75 1.875 5.75 1.875 8 3 C8 6.63 8 10.26 8 14 C5.36 12.68 2.72 11.36 0 10 C0 6.7 0 3.4 0 0 Z " fill="#2F4815" transform="translate(108,260)"/>
<path d="M0 0 C0 3.3 0 6.6 0 10 C-3.96 11.98 -3.96 11.98 -8 14 C-8 10.37 -8 6.74 -8 3 C-2.25 0 -2.25 0 0 0 Z " fill="#324C17" transform="translate(242,235)"/>
<path d="M0 0 C3.96 1.98 3.96 1.98 8 4 C8 7.3 8 10.6 8 14 C2.25 12.125 2.25 12.125 0 11 C0 7.37 0 3.74 0 0 Z " fill="#4A7223" transform="translate(41,226)"/>
<path d="M0 0 C3.96 1.98 3.96 1.98 8 4 C8 7.3 8 10.6 8 14 C2.25 12.125 2.25 12.125 0 11 C0 7.37 0 3.74 0 0 Z " fill="#82895A" transform="translate(142,225)"/>
<path d="M0 0 C0 3.3 0 6.6 0 10 C-3.96 11.98 -3.96 11.98 -8 14 C-8 10.37 -8 6.74 -8 3 C-2.25 0 -2.25 0 0 0 Z " fill="#324C17" transform="translate(225,223)"/>
<path d="M0 0 C5.75 1.875 5.75 1.875 8 3 C8 6.63 8 10.26 8 14 C5.36 12.68 2.72 11.36 0 10 C0 6.7 0 3.4 0 0 Z " fill="#4A7223" transform="translate(125,217)"/>
<path d="M0 0 C0 3.63 0 7.26 0 11 C-5.75 14 -5.75 14 -8 14 C-8 10.7 -8 7.4 -8 4 C-1.125 0 -1.125 0 0 0 Z " fill="#616643" transform="translate(192,208)"/>
<path d="M0 0 C0 3.3 0 6.6 0 10 C-3.96 11.98 -3.96 11.98 -8 14 C-8 10.37 -8 6.74 -8 3 C-2.25 0 -2.25 0 0 0 Z " fill="#616643" transform="translate(267,171)"/>
<path d="M0 0 C5.75 1.875 5.75 1.875 8 3 C8 6.63 8 10.26 8 14 C5.36 12.68 2.72 11.36 0 10 C0 6.7 0 3.4 0 0 Z " fill="#989C7B" transform="translate(83,155)"/>
<path d="M0 0 C3.96 1.98 3.96 1.98 8 4 C8 7.3 8 10.6 8 14 C2.25 12.125 2.25 12.125 0 11 C0 7.37 0 3.74 0 0 Z " fill="#4A7223" transform="translate(41,154)"/>
<path d="M0 0 C0 3.3 0 6.6 0 10 C-3.96 11.98 -3.96 11.98 -8 14 C-8 10.37 -8 6.74 -8 3 C-2.25 0 -2.25 0 0 0 Z " fill="#283E14" transform="translate(192,147)"/>
<path d="M0 0 C0 3.63 0 7.26 0 11 C-5.75 14 -5.75 14 -8 14 C-8 10.7 -8 7.4 -8 4 C-1.125 0 -1.125 0 0 0 Z " fill="#616643" transform="translate(158,143)"/>
<path d="M0 0 C3.96 1.98 3.96 1.98 8 4 C8 7.3 8 10.6 8 14 C2.25 12.125 2.25 12.125 0 11 C0 7.37 0 3.74 0 0 Z " fill="#3C5C1C" transform="translate(108,126)"/>
<path d="M0 0 C5.75 1.875 5.75 1.875 8 3 C8 6.63 8 10.26 8 14 C5.36 12.68 2.72 11.36 0 10 C0 6.7 0 3.4 0 0 Z " fill="#2F4815" transform="translate(142,123)"/>
<path d="M0 0 C0 3.3 0 6.6 0 10 C-3.96 11.98 -3.96 11.98 -8 14 C-8 10.37 -8 6.74 -8 3 C-2.25 0 -2.25 0 0 0 Z " fill="#2D4515" transform="translate(192,106)"/>
<path d="M0 0 C5.75 1.875 5.75 1.875 8 3 C8 6.63 8 10.26 8 14 C5.36 12.68 2.72 11.36 0 10 C0 6.7 0 3.4 0 0 Z " fill="#82895A" transform="translate(33,89)"/>
<path d="M0 0 C5.75 1.875 5.75 1.875 8 3 C8 6.63 8 10.26 8 14 C5.36 12.68 2.72 11.36 0 10 C0 6.7 0 3.4 0 0 Z " fill="#4A7223" transform="translate(58,81)"/>
<path d="M0 0 C3.96 1.98 3.96 1.98 8 4 C8 7.3 8 10.6 8 14 C2.25 12.125 2.25 12.125 0 11 C0 7.37 0 3.74 0 0 Z " fill="#4A7223" transform="translate(41,72)"/>
<path d="M0 0 C0 3.63 0 7.26 0 11 C-5.75 14 -5.75 14 -8 14 C-8 10.7 -8 7.4 -8 4 C-1.125 0 -1.125 0 0 0 Z " fill="#233610" transform="translate(267,68)"/>
<path d="M0 0 C5.75 1.875 5.75 1.875 8 3 C8 6.3 8 9.6 8 13 C2.25 11.125 2.25 11.125 0 10 C0 6.7 0 3.4 0 0 Z " fill="#989C7B" transform="translate(108,250)"/>
<path d="M0 0 C0 3.3 0 6.6 0 10 C-3.96 11.98 -3.96 11.98 -8 14 C-8 10.7 -8 7.4 -8 4 C-1.125 0 -1.125 0 0 0 Z " fill="#616643" transform="translate(158,246)"/>
<path d="M0 0 C3.96 1.98 3.96 1.98 8 4 C8 7.3 8 10.6 8 14 C5.36 12.68 2.72 11.36 0 10 C0 6.7 0 3.4 0 0 Z " fill="#4A7223" transform="translate(83,237)"/>
<path d="M0 0 C3.96 1.98 3.96 1.98 8 4 C8 7.3 8 10.6 8 14 C5.36 12.68 2.72 11.36 0 10 C0 6.7 0 3.4 0 0 Z " fill="#4A7223" transform="translate(100,225)"/>
<path d="M0 0 C5.75 1.875 5.75 1.875 8 3 C8 6.3 8 9.6 8 13 C2.25 11.125 2.25 11.125 0 10 C0 6.7 0 3.4 0 0 Z " fill="#4A7223" transform="translate(58,225)"/>
<path d="M0 0 C5.75 1.875 5.75 1.875 8 3 C8 6.3 8 9.6 8 13 C2.25 11.125 2.25 11.125 0 10 C0 6.7 0 3.4 0 0 Z " fill="#82895A" transform="translate(33,192)"/>
<path d="M0 0 C3.96 1.98 3.96 1.98 8 4 C8 7.3 8 10.6 8 14 C5.36 12.68 2.72 11.36 0 10 C0 6.7 0 3.4 0 0 Z " fill="#989C7B" transform="translate(142,174)"/>
<path d="M0 0 C3.96 1.98 3.96 1.98 8 4 C8 7.3 8 10.6 8 14 C5.36 12.68 2.72 11.36 0 10 C0 6.7 0 3.4 0 0 Z " fill="#527C29" transform="translate(83,165)"/>
<path d="M0 0 C0 3.3 0 6.6 0 10 C-3.96 11.98 -3.96 11.98 -8 14 C-8 10.7 -8 7.4 -8 4 C-1.125 0 -1.125 0 0 0 Z " fill="#38551B" transform="translate(217,165)"/>
<path d="M0 0 C0 3.3 0 6.6 0 10 C-5.75 13 -5.75 13 -8 13 C-8 9.7 -8 6.4 -8 3 C-2.25 0 -2.25 0 0 0 Z " fill="#38551B" transform="translate(242,153)"/>
<path d="M0 0 C5.75 1.875 5.75 1.875 8 3 C8 6.3 8 9.6 8 13 C2.25 11.125 2.25 11.125 0 10 C0 6.7 0 3.4 0 0 Z " fill="#82895A" transform="translate(108,137)"/>
<path d="M0 0 C3.96 1.98 3.96 1.98 8 4 C8 7.3 8 10.6 8 14 C5.36 12.68 2.72 11.36 0 10 C0 6.7 0 3.4 0 0 Z " fill="#989C7B" transform="translate(142,133)"/>
<path d="M0 0 C0 3.3 0 6.6 0 10 C-3.96 11.98 -3.96 11.98 -8 14 C-8 10.7 -8 7.4 -8 4 C-1.125 0 -1.125 0 0 0 Z " fill="#283E14" transform="translate(158,133)"/>
<path d="M0 0 C3.96 1.98 3.96 1.98 8 4 C8 7.3 8 10.6 8 14 C5.36 12.68 2.72 11.36 0 10 C0 6.7 0 3.4 0 0 Z " fill="#4A7223" transform="translate(58,132)"/>
<path d="M0 0 C3.96 1.98 3.96 1.98 8 4 C8 7.3 8 10.6 8 14 C5.36 12.68 2.72 11.36 0 10 C0 6.7 0 3.4 0 0 Z " fill="#4A7223" transform="translate(83,124)"/>
<path d="M0 0 C0 3.3 0 6.6 0 10 C-5.75 13 -5.75 13 -8 13 C-8 9.7 -8 6.4 -8 3 C-2.25 0 -2.25 0 0 0 Z " fill="#72755C" transform="translate(267,120)"/>
<path d="M0 0 C0 3.3 0 6.6 0 10 C-3.96 11.98 -3.96 11.98 -8 14 C-8 10.7 -8 7.4 -8 4 C-1.125 0 -1.125 0 0 0 Z " fill="#72755C" transform="translate(192,116)"/>
<path d="M0 0 C5.75 1.875 5.75 1.875 8 3 C8 6.3 8 9.6 8 13 C2.25 11.125 2.25 11.125 0 10 C0 6.7 0 3.4 0 0 Z " fill="#4A7223" transform="translate(83,104)"/>
<path d="M0 0 C0 3.3 0 6.6 0 10 C-3.96 11.98 -3.96 11.98 -8 14 C-8 10.7 -8 7.4 -8 4 C-1.125 0 -1.125 0 0 0 Z " fill="#283E14" transform="translate(267,99)"/>
<path d="M0 0 C0 3.3 0 6.6 0 10 C-5.75 13 -5.75 13 -8 13 C-8 9.7 -8 6.4 -8 3 C-2.25 0 -2.25 0 0 0 Z " fill="#72755C" transform="translate(267,79)"/>
<path d="M0 0 C5.75 1.875 5.75 1.875 8 3 C8 6.3 8 9.6 8 13 C2.25 11.125 2.25 11.125 0 10 C0 6.7 0 3.4 0 0 Z " fill="#36531A" transform="translate(33,79)"/>
<path d="M0 0 C0.78890625 0.39445312 1.5778125 0.78890625 2.390625 1.1953125 C3.18984375 1.58460937 3.9890625 1.97390625 4.8125 2.375 C5.41578125 2.68695313 6.0190625 2.99890625 6.640625 3.3203125 C3.76599598 5.66260281 1.30314053 7.5711616 -2.359375 8.3203125 C-5.20353638 7.27692369 -7.76607724 5.87757815 -10.359375 4.3203125 C-3.55673183 -1.02462142 -3.55673183 -1.02462142 0 0 Z " fill="#38571A" transform="translate(118.359375,101.6796875)"/>
<path d="M0 0 C0.78890625 0.39445312 1.5778125 0.78890625 2.390625 1.1953125 C3.18984375 1.58460937 3.9890625 1.97390625 4.8125 2.375 C5.41578125 2.68695313 6.0190625 2.99890625 6.640625 3.3203125 C3.76599598 5.66260281 1.30314053 7.5711616 -2.359375 8.3203125 C-5.20353638 7.27692369 -7.76607724 5.87757815 -10.359375 4.3203125 C-3.55673183 -1.02462142 -3.55673183 -1.02462142 0 0 Z " fill="#9DA56C" transform="translate(101.359375,76.6796875)"/>
<path d="M0 0 C0.78890625 0.39445312 1.5778125 0.78890625 2.390625 1.1953125 C3.18984375 1.58460937 3.9890625 1.97390625 4.8125 2.375 C5.41578125 2.68695313 6.0190625 2.99890625 6.640625 3.3203125 C3.76599598 5.66260281 1.30314053 7.5711616 -2.359375 8.3203125 C-5.20353638 7.27692369 -7.76607724 5.87757815 -10.359375 4.3203125 C-3.55673183 -1.02462142 -3.55673183 -1.02462142 0 0 Z " fill="#416420" transform="translate(210.359375,55.6796875)"/>
<path d="M0 0 C0.78890625 0.39445312 1.5778125 0.78890625 2.390625 1.1953125 C3.18984375 1.58460937 3.9890625 1.97390625 4.8125 2.375 C5.41578125 2.68695313 6.0190625 2.99890625 6.640625 3.3203125 C3.76599598 5.66260281 1.30314053 7.5711616 -2.359375 8.3203125 C-5.20353638 7.27692369 -7.76607724 5.87757815 -10.359375 4.3203125 C-3.55673183 -1.02462142 -3.55673183 -1.02462142 0 0 Z " fill="#9DA56C" transform="translate(118.359375,34.6796875)"/>
<path d="M0 0 C2.375 1.5625 2.375 1.5625 4 3 C-2.1091073 7.15419297 -2.1091073 7.15419297 -6.25 6.4375 C-8.70049229 5.15656085 -10.26450059 4.12116594 -12 2 C-7.55319411 -0.64690827 -5.01614931 -1.52665414 0 0 Z " fill="#9DA56C" transform="translate(154,103)"/>
<path d="M0 0 C2.3125 1.0625 2.3125 1.0625 4 2 C4 2.66 4 3.32 4 4 C-1.2519084 7.05343511 -1.2519084 7.05343511 -4.625 6.8125 C-6.87974171 6.04114099 -8.91813812 5.15658993 -11 4 C-11 3.34 -11 2.68 -11 2 C-6.8896419 -0.38974308 -4.59325042 -1.57137514 0 0 Z " fill="#9DA56C" transform="translate(179,90)"/>
<path d="M0 0 C2.3125 1.0625 2.3125 1.0625 4 2 C4 2.66 4 3.32 4 4 C-1.2519084 7.05343511 -1.2519084 7.05343511 -4.625 6.8125 C-6.87974171 6.04114099 -8.91813812 5.15658993 -11 4 C-11 3.34 -11 2.68 -11 2 C-6.8896419 -0.38974308 -4.59325042 -1.57137514 0 0 Z " fill="#517B26" transform="translate(145,90)"/>
<path d="M0 0 C2.45049229 1.28093915 4.01450059 2.31633406 5.75 4.4375 C2.4982462 6.37306774 0.45262371 7.46560495 -3.375 7.3125 C-6.26496371 6.43294583 -8.00287291 5.42534319 -10.25 3.4375 C-4.1408927 -0.71669297 -4.1408927 -0.71669297 0 0 Z " fill="#B7BC94" transform="translate(152.25,76.5625)"/>
<path d="M0 0 C2.375 1.5625 2.375 1.5625 4 3 C-2.1091073 7.15419297 -2.1091073 7.15419297 -6.25 6.4375 C-8.70049229 5.15656085 -10.26450059 4.12116594 -12 2 C-7.55319411 -0.64690827 -5.01614931 -1.52665414 0 0 Z " fill="#B7BC94" transform="translate(196,65)"/>
<path d="M0 0 C2.45049229 1.28093915 4.01450059 2.31633406 5.75 4.4375 C2.4982462 6.37306774 0.45262371 7.46560495 -3.375 7.3125 C-6.26496371 6.43294583 -8.00287291 5.42534319 -10.25 3.4375 C-4.1408927 -0.71669297 -4.1408927 -0.71669297 0 0 Z " fill="#5A8A2B" transform="translate(102.25,51.5625)"/>
<path d="M0 0 C2.3125 1.0625 2.3125 1.0625 4 2 C4 2.66 4 3.32 4 4 C-1.2519084 7.05343511 -1.2519084 7.05343511 -4.625 6.8125 C-6.87974171 6.04114099 -8.91813812 5.15658993 -11 4 C-11 3.34 -11 2.68 -11 2 C-6.8896419 -0.38974308 -4.59325042 -1.57137514 0 0 Z " fill="#38571A" transform="translate(78,48)"/>
<path d="M0 0 C2.375 1.5625 2.375 1.5625 4 3 C-2.1091073 7.15419297 -2.1091073 7.15419297 -6.25 6.4375 C-8.70049229 5.15656085 -10.26450059 4.12116594 -12 2 C-7.55319411 -0.64690827 -5.01614931 -1.52665414 0 0 Z " fill="#416420" transform="translate(221,44)"/>
<path d="M0 0 C2.375 1.5625 2.375 1.5625 4 3 C-2.1091073 7.15419297 -2.1091073 7.15419297 -6.25 6.4375 C-8.70049229 5.15656085 -10.26450059 4.12116594 -12 2 C-7.55319411 -0.64690827 -5.01614931 -1.52665414 0 0 Z " fill="#5A8A2B" transform="translate(129,40)"/>
<path d="M0 0 C2.3125 1.0625 2.3125 1.0625 4 2 C4 2.66 4 3.32 4 4 C-1.2519084 7.05343511 -1.2519084 7.05343511 -4.625 6.8125 C-6.87974171 6.04114099 -8.91813812 5.15658993 -11 4 C-11 3.34 -11 2.68 -11 2 C-6.8896419 -0.38974308 -4.59325042 -1.57137514 0 0 Z " fill="#38571A" transform="translate(187,27)"/>
<path d="M0 0 C2.3125 1.0625 2.3125 1.0625 4 2 C4 2.66 4 3.32 4 4 C-1.2519084 7.05343511 -1.2519084 7.05343511 -4.625 6.8125 C-6.87974171 6.04114099 -8.91813812 5.15658993 -11 4 C-11 3.34 -11 2.68 -11 2 C-6.8896419 -0.38974308 -4.59325042 -1.57137514 0 0 Z " fill="#38571A" transform="translate(120,27)"/>
<path d="M0 0 C2.45049229 1.28093915 4.01450059 2.31633406 5.75 4.4375 C2.4982462 6.37306774 0.45262371 7.46560495 -3.375 7.3125 C-6.26496371 6.43294583 -8.00287291 5.42534319 -10.25 3.4375 C-4.1408927 -0.71669297 -4.1408927 -0.71669297 0 0 Z " fill="#38571A" transform="translate(152.25,9.5625)"/>
<path d="M0 0 C2.3125 1.0625 2.3125 1.0625 4 2 C4 2.66 4 3.32 4 4 C0.55559612 6.13225002 -1.13129687 7.17033395 -5.1875 6.375 C-7.72330379 5.1352737 -9.23240659 4.16039195 -11 2 C-6.8896419 -0.38974308 -4.59325042 -1.57137514 0 0 Z " fill="#5A8A2B" transform="translate(187,86)"/>
<path d="M0 0 C0.78890625 0.39445312 1.5778125 0.78890625 2.390625 1.1953125 C3.18984375 1.58460937 3.9890625 1.97390625 4.8125 2.375 C5.41578125 2.68695313 6.0190625 2.99890625 6.640625 3.3203125 C3.43320378 6.15764665 0.93266397 7.14863094 -3.359375 7.3203125 C-6.734375 5.8828125 -6.734375 5.8828125 -9.359375 4.3203125 C-6.60983524 1.29581877 -4.23530208 -1.22010358 0 0 Z " fill="#416420" transform="translate(84.359375,76.6796875)"/>
<path d="M0 0 C2.3125 1.0625 2.3125 1.0625 4 2 C4 2.66 4 3.32 4 4 C0.55559612 6.13225002 -1.13129687 7.17033395 -5.1875 6.375 C-7.72330379 5.1352737 -9.23240659 4.16039195 -11 2 C-6.8896419 -0.38974308 -4.59325042 -1.57137514 0 0 Z " fill="#639632" transform="translate(212,65)"/>
<path d="M0 0 C2.375 1.5625 2.375 1.5625 4 3 C1.08283148 4.71987259 -1.70644926 6.16618969 -5 7 C-7.94604101 6.14607507 -9.51671713 4.90208901 -12 3 C-7.47466967 -0.46941992 -5.72278032 -1.37346728 0 0 Z " fill="#5A8A2B" transform="translate(104,61)"/>
<path d="M0 0 C0.78890625 0.39445312 1.5778125 0.78890625 2.390625 1.1953125 C3.18984375 1.58460937 3.9890625 1.97390625 4.8125 2.375 C5.41578125 2.68695313 6.0190625 2.99890625 6.640625 3.3203125 C3.43320378 6.15764665 0.93266397 7.14863094 -3.359375 7.3203125 C-6.734375 5.8828125 -6.734375 5.8828125 -9.359375 4.3203125 C-6.60983524 1.29581877 -4.23530208 -1.22010358 0 0 Z " fill="#B7BC94" transform="translate(126.359375,55.6796875)"/>
<path d="M0 0 C2.53580379 1.2397263 4.04490659 2.21460805 5.8125 4.375 C0.5605916 7.42843511 0.5605916 7.42843511 -2.8125 7.1875 C-5.06724171 6.41614099 -7.10563812 5.53158993 -9.1875 4.375 C-9.1875 3.715 -9.1875 3.055 -9.1875 2.375 C-5.74309612 0.24274998 -4.05620313 -0.79533395 0 0 Z " fill="#B7BC94" transform="translate(177.1875,47.625)"/>
<path d="M0 0 C2.375 1.5625 2.375 1.5625 4 3 C1.08283148 4.71987259 -1.70644926 6.16618969 -5 7 C-7.94604101 6.14607507 -9.51671713 4.90208901 -12 3 C-7.47466967 -0.46941992 -5.72278032 -1.37346728 0 0 Z " fill="#9DA56C" transform="translate(213,40)"/>
<path d="M0 0 C2.375 1.5625 2.375 1.5625 4 3 C1.43343441 4.7747528 -0.97496706 6.18242353 -4 7 C-7.02503294 6.18242353 -9.43343441 4.7747528 -12 3 C-7.47466967 -0.46941992 -5.72278032 -1.37346728 0 0 Z " fill="#517B26" transform="translate(162,40)"/>
<path d="M0 0 C0.69609375 0.39445312 1.3921875 0.78890625 2.109375 1.1953125 C2.81578125 1.58460937 3.5221875 1.97390625 4.25 2.375 C4.78109375 2.68695313 5.3121875 2.99890625 5.859375 3.3203125 C2.65195378 6.15764665 0.15141397 7.14863094 -4.140625 7.3203125 C-7.515625 5.8828125 -7.515625 5.8828125 -10.140625 4.3203125 C-3.30603143 -1.04972531 -3.30603143 -1.04972531 0 0 Z " fill="#9DA56C" transform="translate(160.140625,30.6796875)"/>
<path d="M0 0 C2.375 1.5625 2.375 1.5625 4 3 C0.7482462 4.93556774 -1.29737629 6.02810495 -5.125 5.875 C-8.01496371 4.99544583 -9.75287291 3.98784319 -12 2 C-7.55319411 -0.64690827 -5.01614931 -1.52665414 0 0 Z " fill="#639632" transform="translate(154,36)"/>
<path d="M0 0 C5.75 1.875 5.75 1.875 8 3 C7.9375 4.8125 7.9375 4.8125 7 7 C3.4375 8.75 3.4375 8.75 0 10 C0 6.7 0 3.4 0 0 Z " fill="#283E14" transform="translate(150,240)"/>
<path d="M0 0 C0 2.97 0 5.94 0 9 C-5.75 7.125 -5.75 7.125 -8 6 C-8 5.01 -8 4.02 -8 3 C-2.25 0 -2.25 0 0 0 Z " fill="#2F4815" transform="translate(150,199)"/>
<path d="M0 0 C0 2.97 0 5.94 0 9 C-5.75 7.125 -5.75 7.125 -8 6 C-8 5.01 -8 4.02 -8 3 C-2.25 0 -2.25 0 0 0 Z " fill="#36531A" transform="translate(150,158)"/>
<path d="M0 0 C0 2.64 0 5.28 0 8 C-2.31 7.01 -4.62 6.02 -7 5 C-7 4.34 -7 3.68 -7 3 C-1.125 0 -1.125 0 0 0 Z " fill="#283E14" transform="translate(158,225)"/>
<path d="M0 0 C3.465 1.485 3.465 1.485 7 3 C7 3.66 7 4.32 7 5 C3.535 6.485 3.535 6.485 0 8 C0 5.36 0 2.72 0 0 Z " fill="#2F4815" transform="translate(142,184)"/>
<path d="M0 0 C3.465 1.485 3.465 1.485 7 3 C7 3.66 7 4.32 7 5 C3.535 6.485 3.535 6.485 0 8 C0 5.36 0 2.72 0 0 Z " fill="#2F4815" transform="translate(142,143)"/>
</svg>
