<?xml version="1.0" encoding="UTF-8"?>
<svg version="1.1" xmlns="http://www.w3.org/2000/svg" width="160" height="160" viewBox="0 10 160 160">
<path d="M0 0 C13.2 0 26.4 0 40 0 C40 3.3 40 6.6 40 10 C43.3 10 46.6 10 50 10 C50 13.3 50 16.6 50 20 C53.3 20 56.6 20 60 20 C60 33.2 60 46.4 60 60 C56.7 60 53.4 60 50 60 C50 63.3 50 66.6 50 70 C46.7 70 43.4 70 40 70 C40 73.3 40 76.6 40 80 C33.4 80 26.8 80 20 80 C20 83.3 20 86.6 20 90 C13.4 90 6.8 90 0 90 C0 93.3 0 96.6 0 100 C-13.2 100 -26.4 100 -40 100 C-40 96.7 -40 93.4 -40 90 C-43.3 90 -46.6 90 -50 90 C-50 86.7 -50 83.4 -50 80 C-53.3 80 -56.6 80 -60 80 C-60 66.8 -60 53.6 -60 40 C-56.7 40 -53.4 40 -50 40 C-50 36.7 -50 33.4 -50 30 C-46.7 30 -43.4 30 -40 30 C-40 26.7 -40 23.4 -40 20 C-36.7 20 -33.4 20 -30 20 C-30 16.7 -30 13.4 -30 10 C-20.1 10 -10.2 10 0 10 C0 6.7 0 3.4 0 0 Z " fill="#D5A64C" transform="translate(80,40)"/>
<path d="M0 0 C3.3 0 6.6 0 10 0 C10 13.2 10 26.4 10 40 C6.7 40 3.4 40 0 40 C0 43.3 0 46.6 0 50 C-3.3 50 -6.6 50 -10 50 C-10 53.3 -10 56.6 -10 60 C-16.6 60 -23.2 60 -30 60 C-30 53.4 -30 46.8 -30 40 C-26.7 40 -23.4 40 -20 40 C-20 36.7 -20 33.4 -20 30 C-16.7 30 -13.4 30 -10 30 C-10 26.7 -10 23.4 -10 20 C-6.7 20 -3.4 20 0 20 C0 13.4 0 6.8 0 0 Z " fill="#9D772E" transform="translate(130,60)"/>
<path d="M0 0 C13.2 0 26.4 0 40 0 C40 6.6 40 13.2 40 20 C36.7 20 33.4 20 30 20 C30 23.3 30 26.6 30 30 C16.8 30 3.6 30 -10 30 C-10 26.7 -10 23.4 -10 20 C-6.7 20 -3.4 20 0 20 C0 13.4 0 6.8 0 0 Z " fill="#E9BA62" transform="translate(40,70)"/>
<path d="M0 0 C23.1 0 46.2 0 70 0 C70 3.3 70 6.6 70 10 C63.4 10 56.8 10 50 10 C50 13.3 50 16.6 50 20 C36.8 20 23.6 20 10 20 C10 16.7 10 13.4 10 10 C6.7 10 3.4 10 0 10 C0 6.7 0 3.4 0 0 Z " fill="#6D3701" transform="translate(30,120)"/>
<path d="M0 0 C13.2 0 26.4 0 40 0 C40 3.3 40 6.6 40 10 C30.1 10 20.2 10 10 10 C10 13.3 10 16.6 10 20 C0.1 20 -9.8 20 -20 20 C-20 23.3 -20 26.6 -20 30 C-26.6 30 -33.2 30 -40 30 C-40 26.7 -40 23.4 -40 20 C-36.7 20 -33.4 20 -30 20 C-30 16.7 -30 13.4 -30 10 C-20.1 10 -10.2 10 0 10 C0 6.7 0 3.4 0 0 Z " fill="#9A5500" transform="translate(80,40)"/>
<path d="M0 0 C3.3 0 6.6 0 10 0 C10 6.6 10 13.2 10 20 C6.7 20 3.4 20 0 20 C0 29.9 0 39.8 0 50 C-3.3 50 -6.6 50 -10 50 C-10 36.8 -10 23.6 -10 10 C-6.7 10 -3.4 10 0 10 C0 6.7 0 3.4 0 0 Z " fill="#6D3701" transform="translate(30,70)"/>
<path d="M0 0 C16.5 0 33 0 50 0 C50 3.3 50 6.6 50 10 C33.5 10 17 10 0 10 C0 6.7 0 3.4 0 0 Z " fill="#AF8444" transform="translate(50,120)"/>
<path d="M0 0 C6.6 0 13.2 0 20 0 C20 6.6 20 13.2 20 20 C10.1 20 0.2 20 -10 20 C-10 16.7 -10 13.4 -10 10 C-6.7 10 -3.4 10 0 10 C0 6.7 0 3.4 0 0 Z " fill="#C8973A" transform="translate(80,100)"/>
<path d="M0 0 C6.6 0 13.2 0 20 0 C20 3.3 20 6.6 20 10 C23.3 10 26.6 10 30 10 C30 13.3 30 16.6 30 20 C20.1 20 10.2 20 0 20 C0 13.4 0 6.8 0 0 Z " fill="#AF8444" transform="translate(30,100)"/>
<path d="M0 0 C6.6 0 13.2 0 20 0 C20 6.6 20 13.2 20 20 C13.4 20 6.8 20 0 20 C0 13.4 0 6.8 0 0 Z " fill="#F8D086" transform="translate(50,80)"/>
<path d="M0 0 C3.3 0 6.6 0 10 0 C10 13.2 10 26.4 10 40 C6.7 40 3.4 40 0 40 C0 26.8 0 13.6 0 0 Z " fill="#6D3701" transform="translate(130,60)"/>
<path d="M0 0 C9.9 0 19.8 0 30 0 C30 3.3 30 6.6 30 10 C23.4 10 16.8 10 10 10 C10 13.3 10 16.6 10 20 C6.7 20 3.4 20 0 20 C0 13.4 0 6.8 0 0 Z " fill="#C8973A" transform="translate(90,50)"/>
<path d="M0 0 C6.6 0 13.2 0 20 0 C20 3.3 20 6.6 20 10 C13.4 10 6.8 10 0 10 C0 6.7 0 3.4 0 0 Z " fill="#6D3701" transform="translate(80,120)"/>
<path d="M0 0 C6.6 0 13.2 0 20 0 C20 3.3 20 6.6 20 10 C13.4 10 6.8 10 0 10 C0 6.7 0 3.4 0 0 Z " fill="#86693E" transform="translate(30,120)"/>
<path d="M0 0 C6.6 0 13.2 0 20 0 C20 3.3 20 6.6 20 10 C13.4 10 6.8 10 0 10 C0 6.7 0 3.4 0 0 Z " fill="#6D3701" transform="translate(100,110)"/>
<path d="M0 0 C6.6 0 13.2 0 20 0 C20 3.3 20 6.6 20 10 C13.4 10 6.8 10 0 10 C0 6.7 0 3.4 0 0 Z " fill="#C8973A" transform="translate(70,110)"/>
<path d="M0 0 C3.3 0 6.6 0 10 0 C10 6.6 10 13.2 10 20 C6.7 20 3.4 20 0 20 C0 13.4 0 6.8 0 0 Z " fill="#C8973A" transform="translate(30,70)"/>
<path d="M0 0 C3.3 0 6.6 0 10 0 C10 6.6 10 13.2 10 20 C6.7 20 3.4 20 0 20 C0 13.4 0 6.8 0 0 Z " fill="#9A5500" transform="translate(20,80)"/>
<path d="M0 0 C6.6 0 13.2 0 20 0 C20 3.3 20 6.6 20 10 C13.4 10 6.8 10 0 10 C0 6.7 0 3.4 0 0 Z " fill="#9D772E" transform="translate(40,60)"/>
<path d="M0 0 C3.3 0 6.6 0 10 0 C10 3.3 10 6.6 10 10 C6.7 10 3.4 10 0 10 C0 6.7 0 3.4 0 0 Z " fill="#9D772E" transform="translate(70,120)"/>
<path d="M0 0 C3.3 0 6.6 0 10 0 C10 3.3 10 6.6 10 10 C6.7 10 3.4 10 0 10 C0 6.7 0 3.4 0 0 Z " fill="#6D3701" transform="translate(30,120)"/>
<path d="M0 0 C3.3 0 6.6 0 10 0 C10 3.3 10 6.6 10 10 C6.7 10 3.4 10 0 10 C0 6.7 0 3.4 0 0 Z " fill="#9D772E" transform="translate(90,110)"/>
<path d="M0 0 C3.3 0 6.6 0 10 0 C10 3.3 10 6.6 10 10 C6.7 10 3.4 10 0 10 C0 6.7 0 3.4 0 0 Z " fill="#C8973A" transform="translate(50,110)"/>
<path d="M0 0 C3.3 0 6.6 0 10 0 C10 3.3 10 6.6 10 10 C6.7 10 3.4 10 0 10 C0 6.7 0 3.4 0 0 Z " fill="#9D772E" transform="translate(30,110)"/>
<path d="M0 0 C3.3 0 6.6 0 10 0 C10 3.3 10 6.6 10 10 C6.7 10 3.4 10 0 10 C0 6.7 0 3.4 0 0 Z " fill="#6D3701" transform="translate(120,100)"/>
<path d="M0 0 C3.3 0 6.6 0 10 0 C10 3.3 10 6.6 10 10 C6.7 10 3.4 10 0 10 C0 6.7 0 3.4 0 0 Z " fill="#AF8444" transform="translate(80,100)"/>
<path d="M0 0 C3.3 0 6.6 0 10 0 C10 3.3 10 6.6 10 10 C6.7 10 3.4 10 0 10 C0 6.7 0 3.4 0 0 Z " fill="#E9BA62" transform="translate(50,100)"/>
<path d="M0 0 C3.3 0 6.6 0 10 0 C10 3.3 10 6.6 10 10 C6.7 10 3.4 10 0 10 C0 6.7 0 3.4 0 0 Z " fill="#C8973A" transform="translate(30,100)"/>
<path d="M0 0 C3.3 0 6.6 0 10 0 C10 3.3 10 6.6 10 10 C6.7 10 3.4 10 0 10 C0 6.7 0 3.4 0 0 Z " fill="#C8973A" transform="translate(100,90)"/>
<path d="M0 0 C3.3 0 6.6 0 10 0 C10 3.3 10 6.6 10 10 C6.7 10 3.4 10 0 10 C0 6.7 0 3.4 0 0 Z " fill="#D9AA51" transform="translate(30,90)"/>
<path d="M0 0 C3.3 0 6.6 0 10 0 C10 3.3 10 6.6 10 10 C6.7 10 3.4 10 0 10 C0 6.7 0 3.4 0 0 Z " fill="#86693E" transform="translate(120,80)"/>
<path d="M0 0 C3.3 0 6.6 0 10 0 C10 3.3 10 6.6 10 10 C6.7 10 3.4 10 0 10 C0 6.7 0 3.4 0 0 Z " fill="#D9AA51" transform="translate(40,70)"/>
<path d="M0 0 C3.3 0 6.6 0 10 0 C10 3.3 10 6.6 10 10 C6.7 10 3.4 10 0 10 C0 6.7 0 3.4 0 0 Z " fill="#9A5500" transform="translate(30,70)"/>
<path d="M0 0 C3.3 0 6.6 0 10 0 C10 3.3 10 6.6 10 10 C6.7 10 3.4 10 0 10 C0 6.7 0 3.4 0 0 Z " fill="#9A5500" transform="translate(130,60)"/>
<path d="M0 0 C3.3 0 6.6 0 10 0 C10 3.3 10 6.6 10 10 C6.7 10 3.4 10 0 10 C0 6.7 0 3.4 0 0 Z " fill="#AF8444" transform="translate(60,60)"/>
<path d="M0 0 C3.3 0 6.6 0 10 0 C10 3.3 10 6.6 10 10 C6.7 10 3.4 10 0 10 C0 6.7 0 3.4 0 0 Z " fill="#9A5500" transform="translate(40,60)"/>
<path d="M0 0 C3.3 0 6.6 0 10 0 C10 3.3 10 6.6 10 10 C6.7 10 3.4 10 0 10 C0 6.7 0 3.4 0 0 Z " fill="#9A5500" transform="translate(120,50)"/>
<path d="M0 0 C3.3 0 6.6 0 10 0 C10 3.3 10 6.6 10 10 C6.7 10 3.4 10 0 10 C0 6.7 0 3.4 0 0 Z " fill="#AF8444" transform="translate(110,50)"/>
<path d="M0 0 C3.3 0 6.6 0 10 0 C10 3.3 10 6.6 10 10 C6.7 10 3.4 10 0 10 C0 6.7 0 3.4 0 0 Z " fill="#D9AA51" transform="translate(90,50)"/>
<path d="M0 0 C3.3 0 6.6 0 10 0 C10 3.3 10 6.6 10 10 C6.7 10 3.4 10 0 10 C0 6.7 0 3.4 0 0 Z " fill="#9D772E" transform="translate(80,50)"/>
</svg>
