<?xml version="1.0" encoding="UTF-8"?>
<svg version="1.1" xmlns="http://www.w3.org/2000/svg" width="300" height="300" viewBox="90 120 125 160">
<path d="M0 0 C1.30195313 0.66128906 2.60390625 1.32257813 3.9453125 2.00390625 C5.67146465 2.85760106 7.3980502 3.71041993 9.125 4.5625 C9.9809375 5.00013672 10.836875 5.43777344 11.71875 5.88867188 C16.67121516 8.31380374 16.67121516 8.31380374 22.0625 9.03125 C26.14210527 7.59904815 29.99579851 5.8409387 33.875 3.9375 C34.65875 3.56044922 35.4425 3.18339844 36.25 2.79492188 C38.16995053 1.87006766 40.085439 0.93596022 42 0 C42.495 4.455 42.495 4.455 43 9 C44.918125 8.01 44.918125 8.01 46.875 7 C50.75 5 50.75 5 53 5 C53.495 9.455 53.495 9.455 54 14 C55.918125 13.01 55.918125 13.01 57.875 12 C61.75 10 61.75 10 64 10 C64 16.6 64 23.2 64 30 C55.25 35 55.25 35 53 35 C52.77309282 39.18443527 52.80813671 42.96236621 54 47 C57.21568335 49.67882309 59.97841659 50.57462867 64 52 C64 58.93 64 65.86 64 73 C61.1125 71.63875 58.225 70.2775 55.25 68.875 C54.36731445 68.45976074 53.48462891 68.04452148 52.57519531 67.61669922 C45.99534359 64.50692575 39.51461647 61.25730823 33 58 C32.67 67.57 32.34 77.14 32 87 C26 85 26 85 23.125 83.625 C19.03830977 82.80766195 17.23373772 84.00661087 13.734375 86.0546875 C12 87 12 87 10 87 C9.67 77.43 9.34 67.86 9 58 C6.84597656 59.0828125 4.69195312 60.165625 2.47265625 61.28125 C0.39452703 62.32420972 -1.68394458 63.36648401 -3.76245117 64.40869141 C-5.2110536 65.13551292 -6.65929686 65.86305074 -8.10717773 66.59130859 C-10.18380074 67.63565886 -12.26168574 68.67745833 -14.33984375 69.71875 C-15.31642189 70.21091003 -15.31642189 70.21091003 -16.31272888 70.7130127 C-20.88612829 73 -20.88612829 73 -22 73 C-22 66.07 -22 59.14 -22 52 C-20.370625 51.4225 -18.74125 50.845 -17.0625 50.25 C-14.23919324 49.02174368 -14.23919324 49.02174368 -12 47 C-10.80813671 42.96236621 -10.77309282 39.18443527 -11 35 C-11.886875 34.731875 -12.77375 34.46375 -13.6875 34.1875 C-14.780625 33.795625 -15.87375 33.40375 -17 33 C-17.886875 32.690625 -18.77375 32.38125 -19.6875 32.0625 C-22 30 -22 30 -22.3996582 27.88208008 C-22.49369695 25.17619932 -22.4345019 22.51718829 -22.3125 19.8125 C-22.28994141 18.87212891 -22.26738281 17.93175781 -22.24414062 16.96289062 C-22.18519227 14.64032527 -22.10297785 12.32096224 -22 10 C-18.46157845 11.1258614 -15.33810482 12.33094759 -12 14 C-11.67 11.03 -11.34 8.06 -11 5 C-7.46157845 6.1258614 -4.33810482 7.33094759 -1 9 C-0.67 6.03 -0.34 3.06 0 0 Z " fill="#D31111" transform="translate(129,150)"/>
<path d="M0 0 C6.27 2.97 12.54 5.94 19 9 C24.48065324 8.10390295 24.48065324 8.10390295 29.3046875 6.15234375 C30.05234375 5.79462891 30.8 5.43691406 31.5703125 5.06835938 C32.33085937 4.69517578 33.09140625 4.32199219 33.875 3.9375 C34.65875 3.56044922 35.4425 3.18339844 36.25 2.79492188 C38.16995053 1.87006766 40.085439 0.93596022 42 0 C42.495 4.455 42.495 4.455 43 9 C44.27875 8.34 45.5575 7.68 46.875 7 C50.75 5 50.75 5 53 5 C53.495 9.455 53.495 9.455 54 14 C55.27875 13.34 56.5575 12.68 57.875 12 C61.75 10 61.75 10 64 10 C64 16.6 64 23.2 64 30 C55.25 35 55.25 35 53 35 C53 38.96 53 42.92 53 47 C49.37 45.35 45.74 43.7 42 42 C42 44.97 42 47.94 42 51 C36.67672358 49.40950887 31.99448845 46.98261886 27.2109375 44.21484375 C24.16307793 42.58350041 22.45142647 41.91373264 19.015625 42.5703125 C15.56605411 44.20573083 12.13524076 45.86065842 8.75 47.625 C2.26785714 51 2.26785714 51 0 51 C0 34.17 0 17.34 0 0 Z " fill="#ED2727" transform="translate(129,150)"/>
<path d="M0 0 C0 6.6 0 13.2 0 20 C-8.75 25 -8.75 25 -11 25 C-11 28.96 -11 32.92 -11 37 C-14.63 35.35 -18.26 33.7 -22 32 C-22 34.97 -22 37.94 -22 41 C-27.00113594 39.51991304 -31.32915597 37.3681664 -35.875 34.875 C-36.56335938 34.50246094 -37.25171875 34.12992188 -37.9609375 33.74609375 C-39.64294798 32.83500474 -41.32180436 31.91809685 -43 31 C-43 27.7 -43 24.4 -43 21 C-39.37 22.65 -35.74 24.3 -32 26 C-32 22.7 -32 19.4 -32 16 C-30.55625 16.763125 -29.1125 17.52625 -27.625 18.3125 C-23.25449434 20.05197372 -20.80179228 20.19502954 -16.4375 18.375 C-13.86500597 17.01715343 -13.86500597 17.01715343 -12 15 C-11.42095353 12.3857755 -11.43700886 10.05484429 -11.4609375 7.3828125 C-11 5 -11 5 -9.0390625 3.2421875 C-3.16607143 0 -3.16607143 0 0 0 Z " fill="#D31111" transform="translate(193,160)"/>
<path d="M0 0 C2.875 1.0625 2.875 1.0625 9.875 5.0625 C9.875 14.9625 9.875 24.8625 9.875 35.0625 C3.875 33.0625 3.875 33.0625 1 31.6875 C-3.08669023 30.87016195 -4.89126228 32.06911087 -8.390625 34.1171875 C-10.125 35.0625 -10.125 35.0625 -12.125 35.0625 C-12.125 25.1625 -12.125 15.2625 -12.125 5.0625 C-3.125 0.0625 -3.125 0.0625 0 0 Z " fill="#C1B776" transform="translate(151.125,201.9375)"/>
<path d="M0 0 C2.01797888 0.61008664 4.01548229 1.28856912 6 2 C6.886875 2.2990625 7.77375 2.598125 8.6875 2.90625 C11 5 11 5 11.3996582 7.21166992 C11.49376324 10.05219021 11.43432239 12.84810115 11.3125 15.6875 C11.28994141 16.67556641 11.26738281 17.66363281 11.24414062 18.68164062 C11.18517988 21.12261559 11.10295048 23.56054868 11 26 C9.57109789 26.85257451 8.13474883 27.69267759 6.6953125 28.52734375 C5.49672607 29.23105103 5.49672607 29.23105103 4.27392578 29.94897461 C2 31 2 31 -1.125 30.5625 C-4.44441078 28.7584724 -7.71980964 26.87439449 -11 25 C-11 18.4 -11 11.8 -11 5 C-5 7 -5 7 -1 9 C-0.67 6.03 -0.34 3.06 0 0 Z " fill="#D31111" transform="translate(118,155)"/>
<path d="M0 0 C5.09862049 1.52797775 9.65746537 3.71121913 14.375 6.125 C18.149375 8.043125 18.149375 8.043125 22 10 C22 16.93 22 23.86 22 31 C18.926875 29.55625 15.85375 28.1125 12.6875 26.625 C11.72287842 26.17334473 10.75825684 25.72168945 9.7644043 25.25634766 C9.00039307 24.89589355 8.23638184 24.53543945 7.44921875 24.1640625 C6.66893311 23.79748535 5.88864746 23.4309082 5.0847168 23.05322266 C3 22 3 22 0 20 C-0.34057617 17.93701172 -0.34057617 17.93701172 -0.29296875 15.4296875 C-0.28330078 14.53378906 -0.27363281 13.63789063 -0.26367188 12.71484375 C-0.23853516 11.77769531 -0.21339844 10.84054688 -0.1875 9.875 C-0.17396484 8.93011719 -0.16042969 7.98523438 -0.14648438 7.01171875 C-0.11106306 4.67391221 -0.06167271 2.33723763 0 0 Z " fill="#9E1118" transform="translate(171,192)"/>
<path d="M0 0 C0 6.6 0 13.2 0 20 C-10.04337202 26.12400733 -10.04337202 26.12400733 -14.375 25.5625 C-15.24125 25.046875 -16.1075 24.53125 -17 24 C-17.94875 23.46375 -18.8975 22.9275 -19.875 22.375 C-20.57625 21.92125 -21.2775 21.4675 -22 21 C-19.58039653 19.04570489 -17.80587794 17.93529265 -14.8125 16.9375 C-13.884375 16.298125 -12.95625 15.65875 -12 15 C-11.65799298 12.70199794 -11.65799298 12.70199794 -11.6875 10.125 C-11.6015625 7.453125 -11.6015625 7.453125 -11 5 C-7.94952797 2.27507241 -4.17959276 0 0 0 Z " fill="#9E1118" transform="translate(193,160)"/>
<path d="M0 0 C0 6.6 0 13.2 0 20 C-8.75 25 -8.75 25 -11 25 C-11 18.4 -11 11.8 -11 5 C-2.25 0 -2.25 0 0 0 Z " fill="#DDD9BD" transform="translate(150,212)"/>
<path d="M0 0 C3.12512341 1.4789064 6.25010402 2.95811318 9.375 4.4375 C10.26445312 4.85837891 11.15390625 5.27925781 12.0703125 5.71289062 C12.92109375 6.11572266 13.771875 6.51855469 14.6484375 6.93359375 C15.43395996 7.30540771 16.21948242 7.67722168 17.02880859 8.06030273 C18.358629 8.69424858 19.68233248 9.34116624 21 10 C21 13.63 21 17.26 21 21 C17.87487659 19.5210936 14.74989598 18.04188682 11.625 16.5625 C10.29082031 15.93118164 10.29082031 15.93118164 8.9296875 15.28710938 C8.07890625 14.88427734 7.228125 14.48144531 6.3515625 14.06640625 C5.56604004 13.69459229 4.78051758 13.32277832 3.97119141 12.93969727 C2.641371 12.30575142 1.31766752 11.65883376 0 11 C0 7.37 0 3.74 0 0 Z " fill="#B71B23" transform="translate(150,191)"/>
<path d="M0 0 C2.42288163 1.23113904 4.68477852 2.56456269 7 4 C7 7.3 7 10.6 7 14 C5.63875 13.319375 4.2775 12.63875 2.875 11.9375 C-1.23863978 10.12492747 -3.60638397 9.56729912 -8 11 C-10.37865911 11.92825721 -12.67749352 12.93164702 -15 14 C-15 10.7 -15 7.4 -15 4 C-5.36768617 -1.98371011 -5.36768617 -1.98371011 0 0 Z " fill="#9E955E" transform="translate(154,203)"/>
<path d="M0 0 C0 3.3 0 6.6 0 10 C-3.86635697 12.49252455 -7.58861594 14.645489 -12 16 C-15.61697976 15.0768378 -18.16422819 13.39178734 -21 11 C-18.92733168 8.75564079 -17.00788067 7.31595919 -14.27734375 5.95703125 C-13.22256836 5.43012695 -13.22256836 5.43012695 -12.14648438 4.89257812 C-11.41751953 4.53615234 -10.68855469 4.17972656 -9.9375 3.8125 C-9.20466797 3.44447266 -8.47183594 3.07644531 -7.71679688 2.69726562 C-2.26721939 0 -2.26721939 0 0 0 Z " fill="#D31111" transform="translate(182,155)"/>
<path d="M0 0 C0 3.63 0 7.26 0 11 C-5.445 13.475 -5.445 13.475 -11 16 C-11 12.37 -11 8.74 -11 5 C-9.35538655 4.16426177 -7.70927487 3.33147118 -6.0625 2.5 C-4.68771484 1.80390625 -4.68771484 1.80390625 -3.28515625 1.09375 C-1 0 -1 0 0 0 Z " fill="#8CA1A3" transform="translate(118,207)"/>
<path d="M0 0 C0 3.3 0 6.6 0 10 C-1.45537568 10.83848804 -2.91440373 11.67063934 -4.375 12.5 C-5.18710938 12.9640625 -5.99921875 13.428125 -6.8359375 13.90625 C-9 15 -9 15 -11 15 C-11 11.7 -11 8.4 -11 5 C-9.54462432 4.16151196 -8.08559627 3.32936066 -6.625 2.5 C-5.81289062 2.0359375 -5.00078125 1.571875 -4.1640625 1.09375 C-2 0 -2 0 0 0 Z " fill="#B71B23" transform="translate(129,202)"/>
<path d="M0 0 C2.01797888 0.61008664 4.01548229 1.28856912 6 2 C6.94875 2.33 7.8975 2.66 8.875 3 C11 5 11 5 11.30859375 7.41796875 C11.31218522 9.96432371 11.21416931 12.46328347 11 15 C8.98202112 14.38991336 6.98451771 13.71143088 5 13 C4.05125 12.67 3.1025 12.34 2.125 12 C0 10 0 10 -0.30859375 7.58203125 C-0.31218522 5.03567629 -0.21416931 2.53671653 0 0 Z " fill="#8CA1A3" transform="translate(107,170)"/>
<path d="M0 0 C3.63 1.65 7.26 3.3 11 5 C11 8.3 11 11.6 11 15 C8.98202112 14.38991336 6.98451771 13.71143088 5 13 C4.05125 12.67 3.1025 12.34 2.125 12 C0 10 0 10 -0.30859375 7.58203125 C-0.31216136 5.05259755 -0.16390391 2.52412025 0 0 Z " fill="#C8C2A0" transform="translate(150,222)"/>
<path d="M0 0 C0 3.3 0 6.6 0 10 C-5.445 12.475 -5.445 12.475 -11 15 C-11 11.7 -11 8.4 -11 5 C-9.54462432 4.16151196 -8.08559627 3.32936066 -6.625 2.5 C-5.81289062 2.0359375 -5.00078125 1.571875 -4.1640625 1.09375 C-2 0 -2 0 0 0 Z " fill="#C1B776" transform="translate(150,202)"/>
<path d="M0 0 C3.63 1.65 7.26 3.3 11 5 C11 8.3 11 11.6 11 15 C8.98202112 14.38991336 6.98451771 13.71143088 5 13 C4.05125 12.67 3.1025 12.34 2.125 12 C0 10 0 10 -0.30859375 7.58203125 C-0.31216136 5.05259755 -0.16390391 2.52412025 0 0 Z " fill="#D31111" transform="translate(182,197)"/>
<path d="M0 0 C2.01797888 0.61008664 4.01548229 1.28856912 6 2 C6.94875 2.33 7.8975 2.66 8.875 3 C11 5 11 5 11.30859375 7.41796875 C11.31216136 9.94740245 11.16390391 12.47587975 11 15 C7.37 13.35 3.74 11.7 0 10 C0 6.7 0 3.4 0 0 Z " fill="#8CA1A3" transform="translate(171,192)"/>
<path d="M0 0 C0 3.3 0 6.6 0 10 C-1.45537568 10.83848804 -2.91440373 11.67063934 -4.375 12.5 C-5.18710938 12.9640625 -5.99921875 13.428125 -6.8359375 13.90625 C-9 15 -9 15 -11 15 C-11 11.7 -11 8.4 -11 5 C-9.35538655 4.16426177 -7.70927487 3.33147118 -6.0625 2.5 C-4.68771484 1.80390625 -4.68771484 1.80390625 -3.28515625 1.09375 C-1 0 -1 0 0 0 Z " fill="#8CA1A3" transform="translate(182,165)"/>
<path d="M0 0 C0 3.3 0 6.6 0 10 C-5.445 12.475 -5.445 12.475 -11 15 C-11 11.7 -11 8.4 -11 5 C-9.54462432 4.16151196 -8.08559627 3.32936066 -6.625 2.5 C-5.81289062 2.0359375 -5.00078125 1.571875 -4.1640625 1.09375 C-2 0 -2 0 0 0 Z " fill="#D31111" transform="translate(193,160)"/>
<path d="M0 0 C0 3.3 0 6.6 0 10 C-4.95 12.475 -4.95 12.475 -10 15 C-10 11.7 -10 8.4 -10 5 C-8.52227402 4.1641146 -7.04277811 3.33135744 -5.5625 2.5 C-4.32693359 1.80390625 -4.32693359 1.80390625 -3.06640625 1.09375 C-1 0 -1 0 0 0 Z " fill="#90BEC2" transform="translate(139,166)"/>
<path d="M0 0 C3.3 1.65 6.6 3.3 10 5 C10 8.3 10 11.6 10 15 C6.7 13.35 3.4 11.7 0 10 C0 6.7 0 3.4 0 0 Z " fill="#90BEC2" transform="translate(129,150)"/>
<path d="M0 0 C3.63 1.65 7.26 3.3 11 5 C8.05321567 7.94678433 5.75906182 9.32041919 2 11 C1.34 11 0.68 11 0 11 C0 7.37 0 3.74 0 0 Z " fill="#B71B23" transform="translate(118,175)"/>
</svg>
