<?xml version="1.0" encoding="utf-8"?>
<svg fill="currentColor" version="1.1" id="Capa_1" width="800px" height="800px" viewBox="0 0 377.343 377.343" xmlns="http://www.w3.org/2000/svg">
    <defs/>
    <path d="
M112.684 103.587 L 143.984 104.868 L 143.984 200.24 L 112.684 204.083 L 112.684 103.587 Z
M321.407 73.223 L 321.407 304.134 C 321.407 315 312.564 323.844 301.697 323.844 L 75.651 323.844 C 64.776 323.844 55.933 315 55.933 304.134 L 55.933 73.223 C 55.933 62.353 64.776 53.51 75.651 53.51 L 301.697 53.51 C 312.564 53.505 321.407 62.353 321.407 73.223 Z
M178.713 103.587 C 178.713 95.677 175.384 88.801 168.735 82.949 C 162.084 77.099 154.371 74.18 145.602 74.18 L 110.908 74.18 C 102.065 74.18 87.927 71.992 81.318 77.877 C 74.699 83.76 77.799 95.743 77.799 103.587 L 77.799 204.285 C 77.799 212.198 74.661 224.162 81.2 229.944 C 87.739 235.723 101.836 233.489 110.677 233.489 L 145.598 233.489 C 154.366 233.489 162.077 230.567 168.728 224.722 C 175.385 218.867 178.713 211.989 178.713 204.076 L 178.713 103.587 Z"/>
</svg>