<svg fill="currentColor" version="1.1" id="Capa_1" xmlns="http://www.w3.org/2000/svg" xmlns:xlink="http://www.w3.org/1999/xlink"
	 width="800px" height="800px" viewBox="0 0 377.343 377.343"
	 xml:space="preserve">
	<path fill-rule="evenodd" d="M301.689,53.505H75.651c-10.876,0-19.725,8.843-19.725,19.718v230.911c0,10.866,8.843,19.715,19.725,19.715h226.039
		c10.873,0,19.722-8.843,19.722-19.715V73.223C321.406,62.348,312.562,53.505,301.689,53.505z M189.307,112.351h-38.696v-12.344
		h-37.637v20.413l61.429,33.24c9.936,5.373,14.904,12.596,14.904,21.668v20.992c0,7.578-3.861,14.166-11.565,19.77
		c-7.716,5.604-16.58,8.404-26.605,8.404h-38.163c-10.114,0-18.958-2.779-26.538-8.361c-7.588-5.562-11.369-12.136-11.369-19.72
		v-12.443h38.422v12.344h37.778v-21.29l-61.048-32.257c-10.104-5.374-15.157-12.665-15.157-21.863v-20.99
		c0-7.516,3.809-14.077,11.438-19.68c7.625-5.603,16.489-8.405,26.593-8.405h38.04c10.025,0,18.889,2.818,26.605,8.457
		c7.705,5.637,11.565,12.214,11.565,19.727v12.339H189.307z"/>
</svg>