<svg fill="currentColor" version="1.1" id="Capa_1" xmlns="http://www.w3.org/2000/svg" xmlns:xlink="http://www.w3.org/1999/xlink"
	 width="800px" height="800px" viewBox="0 0 419.896 419.896"
	 xml:space="preserve">
    <path fill-rule="evenodd" d="M 335.713 59.54 L 84.18 59.54 C 72.077 59.54 62.231 69.38 62.231 81.476 L 62.231 338.423 C 62.231 350.523 72.071 360.368 84.18 360.368 L 335.713 360.368 C 347.813 360.368 357.658 350.528 357.658 338.423 L 357.658 81.476 C 357.652 69.38 347.812 59.54 335.713 59.54 Z M 327.776 330.023 L 285.463 330.023 L 285.463 234.323 L 248.66 292.715 L 212.003 234.323 L 212.003 330.029 L 169.814 330.029 L 169.814 160.135 L 212.003 160.135 L 248.66 218.527 L 285.463 160.135 L 327.776 160.135 L 327.776 330.023 Z" style="" transform="matrix(-1, 0, 0, -1, 419.890008648437, 419.901989539063)"/>
</svg>